<svg width="126" height="73" viewBox="0 0 126 73" fill="none" xmlns="http://www.w3.org/2000/svg">
<g id="AQA-logo-strapline-RGB-purple" clip-path="url(#clip0_943_3298)">
<g id="Logomark">
<path id="Vector" d="M64.2111 51.2827C60.5433 51.2827 57.2281 50.5658 54.2654 49.132C51.3533 47.7367 48.7419 45.786 46.5778 43.3895C44.4234 41.0033 42.7278 38.2402 41.5762 35.2387C40.4106 32.2608 39.8124 29.0911 39.8127 25.8932C39.8004 22.6156 40.4356 19.3679 41.6818 16.3365C42.8991 13.3464 44.642 10.5985 46.8279 8.22278C49.0242 5.84203 51.6737 3.9237 54.6211 2.58025C57.6977 1.17955 61.0438 0.469493 64.4242 0.499964C68.0438 0.499964 71.3467 1.22921 74.3329 2.68769C77.2589 4.09656 79.8661 6.08855 81.9945 8.5414C84.0947 10.9609 85.7538 13.7303 86.8961 16.7236C88.041 19.694 88.6269 22.8505 88.6244 26.034C88.6287 29.2826 88.0132 32.5023 86.8109 35.5203C85.6356 38.5155 83.9138 41.2661 81.7333 43.6321C79.5507 46.0039 76.9121 47.9111 73.9753 49.2394C70.9954 50.6028 67.7406 51.2839 64.2111 51.2827ZM64.2852 42.6781C66.6848 42.6781 68.7774 42.1965 70.5631 41.2332C72.3318 40.2843 73.8818 38.9748 75.1127 37.3894C76.3673 35.7674 77.3095 33.9263 77.8914 31.9599C78.4944 29.9939 78.8034 27.9496 78.8083 25.8932C78.813 23.7621 78.4797 21.6438 77.821 19.6171C77.1996 17.6656 76.2188 15.8474 74.9293 14.2562C73.6697 12.7128 72.11 11.441 70.3446 10.5179C68.5576 9.57691 66.5125 9.10701 64.2093 9.10824C61.9061 9.10948 59.8486 9.59111 58.037 10.5531C56.2588 11.4966 54.7012 12.8068 53.467 14.397C52.2119 16.0128 51.2564 17.8404 50.6457 19.7931C49.3643 23.8215 49.3766 28.1501 50.6809 32.1711C51.298 34.1174 52.2661 35.9343 53.5374 37.532C54.7857 39.0868 56.3479 40.3606 58.1222 41.2703C59.9252 42.2088 61.9796 42.6781 64.2852 42.6781Z" fill="#371376"/>
<path id="Vector_2" d="M47.4661 51.2643L29.0584 1.18359H19.1849L0.703125 51.2643H10.7193L14.7946 39.0808L23.1213 39.0956L33.3931 39.1141L37.4425 51.2624H47.4587L47.4661 51.2643ZM24.1253 11.272L30.9164 31.6488H17.2973L24.1253 11.272ZM125.921 51.2643L107.511 1.18359H97.6375L79.1576 51.2643H89.1737L93.2491 39.0808L101.585 39.0956L111.857 39.1141L115.906 51.2624H125.922L125.921 51.2643ZM102.58 11.272L109.371 31.6488H95.7517L102.58 11.272Z" fill="#371376"/>
<path id="Vector_3" d="M62.7266 32.7842H72.6705L89.1738 51.2641H79.1558L62.7266 32.7842Z" fill="#C8194B"/>
</g>
<g id="Tagline">
<path id="Vector_4" d="M10.6563 64.5499C10.6647 65.3176 10.5566 66.0821 10.3358 66.8173C10.1443 67.4627 9.81788 68.06 9.37811 68.5697C8.93818 69.0631 8.38335 69.4405 7.76278 69.6682L10.2932 72.408H7.9647L5.96592 70.0165H5.6899C4.9357 70.0334 4.18567 69.8999 3.48365 69.6238C2.88628 69.3819 2.35533 69.0008 1.93501 68.5123C1.51031 68.0028 1.19502 67.4113 1.00879 66.7747C0.79965 66.0475 0.698538 65.2936 0.708697 64.537C0.687306 63.5537 0.8722 62.5768 1.25146 61.6694C1.58821 60.8785 2.16238 60.2117 2.89457 59.7614C3.63555 59.3094 4.56979 59.0828 5.69731 59.0815C6.80136 59.0815 7.71956 59.3069 8.45189 59.7577C9.183 60.2079 9.75793 60.8721 10.0987 61.6601C10.4871 62.5731 10.6771 63.5581 10.6563 64.5499ZM2.54076 64.5499C2.52584 65.2731 2.63936 65.9931 2.87605 66.6765C3.06666 67.2324 3.42609 67.7149 3.90415 68.0566C4.43517 68.3984 5.059 68.5673 5.6899 68.5401C6.3215 68.5683 6.94622 68.3993 7.4775 68.0566C7.95336 67.7147 8.30976 67.232 8.49635 66.6765C8.72805 65.9921 8.83838 65.2724 8.82237 64.5499C8.82237 63.3026 8.57538 62.327 8.0814 61.6231C7.58742 60.9192 6.79642 60.5666 5.70843 60.5653C5.07578 60.5388 4.45012 60.7062 3.91527 61.0451C3.43476 61.382 3.07247 61.8616 2.87975 62.4159C2.64036 63.1013 2.52555 63.8241 2.54076 64.5499ZM19.7795 61.8306V69.8794H18.4347L18.2013 68.7976H18.1068C17.9418 69.0694 17.7216 69.3036 17.4603 69.4848C17.1945 69.6685 16.8995 69.8057 16.5878 69.8905C16.2592 69.9822 15.9194 70.0277 15.5782 70.0257C15.0441 70.0405 14.5135 69.9348 14.0259 69.7164C13.601 69.5151 13.2545 69.1791 13.0404 68.7605C12.7935 68.2405 12.676 67.6686 12.6977 67.0933V61.8306H14.4149V66.7599C14.4149 67.3842 14.5408 67.8528 14.7965 68.1622C15.0521 68.4716 15.4467 68.6272 15.9839 68.6272C16.4193 68.6501 16.8512 68.5389 17.2213 68.3085C17.5393 68.0768 17.7686 67.7435 17.8715 67.3638C18.008 66.8637 18.0704 66.3463 18.0568 65.8281V61.8306H19.7795ZM25.4295 61.6768C26.0755 61.6579 26.7149 61.8114 27.2819 62.1214C27.7926 62.4138 28.2047 62.8517 28.4656 63.3792C28.756 63.9869 28.8982 64.6547 28.8806 65.328V66.2431H23.5085C23.527 67.0223 23.7364 67.6238 24.1365 68.0473C24.5366 68.4709 25.0979 68.6815 25.8203 68.679C26.2858 68.684 26.7502 68.6342 27.2041 68.5308C27.6395 68.4223 28.0642 68.2748 28.473 68.0899V69.4793C28.0812 69.6645 27.669 69.8031 27.2449 69.8924C26.7512 69.9877 26.249 70.0318 25.7462 70.0239C25.0253 70.0394 24.3111 69.8812 23.6641 69.5626C23.0669 69.2565 22.5771 68.7758 22.26 68.1844C21.9029 67.4808 21.7296 66.6982 21.7561 65.9096C21.7313 65.119 21.8858 64.3331 22.2081 63.6108C22.4865 63.012 22.9383 62.5106 23.5048 62.1714C24.0893 61.8343 24.7548 61.6633 25.4295 61.6768ZM25.4295 62.9643C25.1871 62.9543 24.9454 62.9959 24.7203 63.0863C24.4951 63.1766 24.2917 63.3137 24.1235 63.4885C23.7925 63.8367 23.5974 64.348 23.5381 65.0223H27.2023C27.2056 64.6564 27.1376 64.2934 27.0022 63.9535C26.8859 63.6578 26.6832 63.4041 26.4205 63.2254C26.1239 63.0409 25.7786 62.9499 25.4295 62.9643ZM36.2107 67.5805C36.2265 68.0564 36.0917 68.5251 35.8254 68.9198C35.5428 69.3015 35.1515 69.5888 34.7028 69.7442C34.1218 69.9453 33.5094 70.0401 32.8948 70.0239C32.4086 70.031 31.9228 69.9907 31.4443 69.9035C31.0495 69.8256 30.6652 69.7012 30.2995 69.533V68.051C30.7178 68.2431 31.1516 68.3993 31.5962 68.5179C32.0376 68.643 32.4935 68.709 32.9522 68.7142C33.508 68.7142 33.9192 68.6253 34.1656 68.4475C34.2822 68.3706 34.3774 68.2653 34.4423 68.1415C34.5071 68.0177 34.5393 67.8795 34.5361 67.7398C34.5387 67.5711 34.4868 67.4061 34.3879 67.2693C34.2344 67.0896 34.0451 66.9439 33.8321 66.8414C33.4485 66.641 33.0539 66.4622 32.6503 66.306C32.2035 66.1353 31.7701 65.9316 31.3536 65.6966C31.0325 65.5184 30.7602 65.2639 30.5607 64.9556C30.369 64.6175 30.276 64.2325 30.2921 63.8442C30.2773 63.5227 30.3478 63.2031 30.4965 62.9178C30.6452 62.6324 30.8668 62.3915 31.1387 62.2196C31.7043 61.8491 32.4521 61.6638 33.382 61.6638C33.853 61.6613 34.3227 61.7117 34.7824 61.8139C35.228 61.9142 35.6624 62.0588 36.0791 62.2455L35.5419 63.5329C35.1862 63.3766 34.8205 63.2442 34.4471 63.1365C34.0856 63.0335 33.7116 62.9811 33.3357 62.9809C32.9878 62.9601 32.6404 63.0303 32.328 63.1847C32.222 63.2399 32.1336 63.3236 32.0728 63.4264C32.0119 63.5292 31.9809 63.6469 31.9834 63.7664C31.9786 63.9413 32.0379 64.1119 32.1501 64.2461C32.315 64.4138 32.5114 64.5473 32.7281 64.6389C33.0022 64.7623 33.3838 64.9247 33.8729 65.126C34.3029 65.2859 34.7197 65.4792 35.1196 65.704C35.446 65.8817 35.7245 66.1359 35.931 66.445C36.1331 66.788 36.2304 67.1828 36.2107 67.5805ZM41.0548 68.642C41.2766 68.642 41.498 68.6215 41.7161 68.5808C41.9178 68.5439 42.1171 68.4944 42.3126 68.4326V69.7294C42.0742 69.8271 41.8257 69.8979 41.5716 69.9405C41.262 69.9991 40.9475 70.0282 40.6324 70.0276C40.2118 70.0346 39.794 69.9565 39.4043 69.7979C39.0353 69.6406 38.7304 69.3632 38.5392 69.0106C38.3024 68.5301 38.1921 67.997 38.2187 67.462V63.131H37.1221V62.3678L38.3002 61.7639L38.8559 60.0411H39.9433V61.8306H42.2478V63.1273H39.9433V67.4323C39.9302 67.5963 39.9504 67.7612 40.0026 67.9172C40.0548 68.0732 40.138 68.217 40.2471 68.34C40.3549 68.4416 40.4818 68.5207 40.6205 68.5725C40.7592 68.6244 40.9068 68.648 41.0548 68.642ZM44.8041 58.7481C45.0478 58.7421 45.2866 58.8163 45.484 58.9593C45.6692 59.1001 45.7711 59.3409 45.7711 59.6854C45.7847 59.8203 45.7658 59.9565 45.7158 60.0826C45.6658 60.2086 45.5863 60.3208 45.484 60.4097C45.2831 60.5486 45.0446 60.623 44.8004 60.623C44.5562 60.623 44.3178 60.5486 44.1169 60.4097C44.0169 60.3192 43.9396 60.2066 43.891 60.0808C43.8424 59.955 43.824 59.8196 43.8372 59.6854C43.8372 59.3409 43.9316 59.1001 44.1169 58.9593C44.3162 58.8147 44.558 58.7404 44.8041 58.7481ZM45.647 61.8306V69.8794H43.939V61.8306H45.647ZM55.2148 65.8337C55.2246 66.4379 55.1364 67.0397 54.9536 67.6157C54.798 68.1034 54.5375 68.551 54.1904 68.9273C53.8542 69.2854 53.4422 69.5639 52.9845 69.7423C52.4761 69.9359 51.9354 70.0308 51.3914 70.022C50.8717 70.0285 50.3557 69.9335 49.8724 69.7423C49.4189 69.561 49.0105 69.2828 48.6757 68.9273C48.3261 68.5497 48.0597 68.1029 47.894 67.6157C47.7015 67.0417 47.6082 66.4391 47.618 65.8337C47.595 65.056 47.7529 64.2836 48.0792 63.5774C48.3655 62.9824 48.8262 62.4887 49.4 62.1621C50.0252 61.8249 50.7276 61.657 51.4377 61.675C52.1238 61.6613 52.8012 61.8294 53.4013 62.1621C53.9746 62.4939 54.4373 62.9875 54.7313 63.5811C55.0708 64.2823 55.2367 65.0549 55.2148 65.8337ZM49.3778 65.8337C49.3659 66.3441 49.4385 66.853 49.5927 67.3397C49.702 67.7322 49.9439 68.0748 50.2772 68.3091C50.6105 68.5435 51.0147 68.6552 51.421 68.6253C51.8342 68.6433 52.2421 68.5277 52.5844 68.2956C52.8994 68.054 53.1307 67.7197 53.2457 67.3397C53.3999 66.8529 53.4744 66.3443 53.4661 65.8337C53.4778 65.3278 53.4064 64.8234 53.255 64.3406C53.1392 63.9661 52.9077 63.6379 52.5936 63.4033C52.2476 63.1738 51.8376 63.0603 51.4229 63.0791C50.7153 63.0791 50.199 63.3168 49.8743 63.7923C49.5495 64.2678 49.384 64.9482 49.3778 65.8337ZM61.3742 61.6768C62.2794 61.6768 62.9858 61.9108 63.4934 62.3789C64.0009 62.8469 64.2541 63.5972 64.2529 64.6296V69.8794H62.5431V64.9501C62.5431 64.3239 62.4134 63.8553 62.1578 63.5422C61.9021 63.2291 61.502 63.0735 60.9648 63.0735C60.1843 63.0735 59.6428 63.3137 59.3402 63.7941C59.0376 64.2745 58.8857 64.9698 58.8845 65.88V69.8794H57.171V61.8306H58.5011L58.7419 62.9216H58.8382C59.005 62.6479 59.2263 62.4115 59.4884 62.227C59.7543 62.0423 60.0492 61.9033 60.3609 61.8157C60.6904 61.7218 61.0316 61.675 61.3742 61.6768ZM72.0461 67.5805C72.0619 68.0564 71.9271 68.5251 71.6608 68.9198C71.3785 69.3018 70.9871 69.5892 70.5382 69.7442C69.9578 69.9452 69.346 70.0399 68.7321 70.0239C68.2458 70.0312 67.76 69.9909 67.2816 69.9035C66.8861 69.8258 66.5012 69.7015 66.1349 69.533V68.051C66.5532 68.2431 66.987 68.3993 67.4317 68.5179C67.873 68.643 68.329 68.709 68.7876 68.7142C69.3508 68.7142 69.7552 68.6253 70.001 68.4475C70.1175 68.3705 70.2126 68.2652 70.2774 68.1414C70.3422 68.0176 70.3746 67.8795 70.3715 67.7398C70.3735 67.5709 70.3209 67.4059 70.2214 67.2693C70.0684 67.0892 69.879 66.9434 69.6657 66.8414C69.2821 66.641 68.8875 66.4622 68.4838 66.306C68.0403 66.1349 67.6099 65.9312 67.1964 65.6966C66.8756 65.5187 66.6039 65.2641 66.4054 64.9556C66.2122 64.6181 66.1185 64.2327 66.1349 63.8442C66.1201 63.5225 66.1908 63.2027 66.3399 62.9173C66.4889 62.632 66.711 62.3912 66.9834 62.2196C67.5465 61.8491 68.2937 61.6638 69.2248 61.6638C69.6958 61.6613 70.1655 61.7117 70.6253 61.8139C71.0707 61.9146 71.5051 62.0591 71.922 62.2455L71.3829 63.5329C71.0277 63.3769 70.6626 63.2445 70.29 63.1365C69.9284 63.0338 69.5544 62.9814 69.1785 62.9809C68.8306 62.9601 68.4833 63.0303 68.1708 63.1847C68.0648 63.2399 67.9765 63.3236 67.9156 63.4264C67.8547 63.5292 67.8238 63.6469 67.8262 63.7664C67.8214 63.9413 67.8807 64.1119 67.993 64.2461C68.1586 64.413 68.3548 64.5463 68.5709 64.6389C68.8451 64.7623 69.2273 64.9247 69.7176 65.126C70.1474 65.2863 70.5642 65.4795 70.9643 65.704C71.2898 65.8822 71.5675 66.1364 71.7738 66.445C71.9734 66.7888 72.068 67.1835 72.0461 67.5805ZM86.8489 61.6768C87.7517 61.6768 88.4309 61.9096 88.8866 62.3752C89.3423 62.8408 89.5714 63.5873 89.5738 64.6148V69.8794H87.8659V64.9204C87.8659 64.3091 87.7455 63.8497 87.5084 63.5385C87.3783 63.3798 87.2119 63.2547 87.0233 63.1738C86.8347 63.0929 86.6294 63.0585 86.4247 63.0735C85.7467 63.0735 85.2589 63.2903 84.9613 63.7237C84.6637 64.1572 84.5142 64.7864 84.513 65.6114V69.872H82.805V64.9204C82.8146 64.573 82.7619 64.2267 82.6494 63.8979C82.5613 63.6458 82.3935 63.4293 82.1715 63.281C81.929 63.1344 81.6488 63.0623 81.3657 63.0735C80.9658 63.053 80.5703 63.1657 80.2413 63.394C79.945 63.6344 79.735 63.9648 79.6429 64.3351C79.5098 64.8314 79.4475 65.344 79.4577 65.8578V69.8794H77.7479V61.8306H79.0779L79.3188 62.9142H79.4132C79.5684 62.6429 79.7777 62.4065 80.0282 62.2196C80.2748 62.0373 80.5513 61.8994 80.8452 61.812C81.6609 61.5833 82.5311 61.6489 83.3033 61.9973C83.7126 62.2038 84.0392 62.5436 84.2296 62.9605H84.3611C84.6021 62.5355 84.9709 62.1971 85.4151 61.9936C85.8641 61.7843 86.3536 61.6762 86.8489 61.6768ZM95.1163 61.6768C96.1339 61.6768 96.9033 61.9022 97.4245 62.3529C97.9456 62.8037 98.2062 63.507 98.2062 64.4629V69.8794H96.9984L96.6724 68.7364H96.6131C96.408 69.0045 96.171 69.2465 95.9073 69.457C95.6572 69.651 95.3724 69.7956 95.0682 69.8831C94.6903 69.985 94.2998 70.0324 93.9086 70.0239C93.4652 70.0311 93.0256 69.9406 92.6211 69.759C92.2479 69.5857 91.9364 69.3026 91.7282 68.9476C91.4953 68.5261 91.3819 68.0489 91.4004 67.5676C91.4004 66.7377 91.7091 66.1146 92.3266 65.6984C92.944 65.2823 93.8789 65.0519 95.1312 65.0075L96.5261 64.9575V64.537C96.5261 63.98 96.3964 63.5823 96.137 63.344C95.8306 63.0905 95.4391 62.9633 95.0422 62.9883C94.6461 62.9872 94.252 63.0459 93.8734 63.1625C93.4928 63.2782 93.1213 63.4218 92.7619 63.5922L92.2062 62.3844C93.1054 61.9204 94.1026 61.6784 95.1145 61.6787L95.1163 61.6768ZM96.5112 66.0319L95.472 66.0689C94.6187 66.0986 94.0197 66.2437 93.6751 66.5043C93.5086 66.6286 93.3747 66.7915 93.285 66.9789C93.1953 67.1664 93.1525 67.3728 93.1602 67.5805C93.1459 67.7432 93.1708 67.9069 93.2326 68.0581C93.2945 68.2092 93.3916 68.3433 93.5158 68.4493C93.789 68.6425 94.1189 68.739 94.4532 68.7235C94.9929 68.7455 95.5214 68.5651 95.9351 68.2178C96.3254 67.8806 96.5205 67.3866 96.5205 66.7358L96.5112 66.0319ZM103.593 68.642C103.815 68.642 104.036 68.6215 104.254 68.5808C104.456 68.5439 104.655 68.4944 104.851 68.4326V69.7294C104.613 69.8272 104.364 69.898 104.11 69.9405C103.801 69.9991 103.487 70.0282 103.173 70.0276C102.752 70.0346 102.334 69.9565 101.944 69.7979C101.575 69.6406 101.271 69.3632 101.079 69.0106C100.843 68.5301 100.732 67.997 100.759 67.462V63.131H99.6659V62.3678L100.844 61.7639L101.4 60.0411H102.474V61.8306H104.779V63.1273H102.48V67.4323C102.466 67.5965 102.487 67.7616 102.539 67.9176C102.592 68.0737 102.676 68.2174 102.785 68.34C102.893 68.4421 103.02 68.5215 103.158 68.5734C103.297 68.6253 103.445 68.6486 103.593 68.642ZM109.482 68.642C109.704 68.642 109.925 68.6215 110.143 68.5808C110.345 68.5439 110.544 68.4944 110.74 68.4326V69.7294C110.501 69.8271 110.253 69.8979 109.999 69.9405C109.689 69.999 109.375 70.0281 109.06 70.0276C108.639 70.0346 108.221 69.9565 107.831 69.7979C107.463 69.6406 107.158 69.3632 106.966 69.0106C106.73 68.5301 106.619 67.997 106.646 67.462V63.131H105.557V62.3678L106.733 61.7639L107.289 60.0411H108.363V61.8306H110.669V63.1273H108.369V67.4323C108.355 67.5965 108.376 67.7616 108.428 67.9176C108.481 68.0737 108.564 68.2174 108.674 68.34C108.782 68.4421 108.909 68.5215 109.047 68.5734C109.186 68.6253 109.334 68.6486 109.482 68.642ZM115.582 61.6768C116.228 61.6579 116.867 61.8114 117.435 62.1214C117.945 62.4138 118.357 62.8517 118.618 63.3792C118.91 63.9865 119.052 64.6546 119.033 65.328V66.2431H113.661C113.68 67.0223 113.889 67.6238 114.289 68.0473C114.689 68.4709 115.25 68.6815 115.973 68.679C116.438 68.684 116.903 68.6342 117.357 68.5308C117.792 68.4226 118.217 68.275 118.626 68.0899V69.4793C118.234 69.6645 117.822 69.8031 117.397 69.8924C116.904 69.9877 116.403 70.0318 115.901 70.0239C115.179 70.0396 114.464 69.8814 113.817 69.5626C113.22 69.257 112.73 68.7761 112.414 68.1844C112.056 67.4812 111.882 66.6985 111.909 65.9096C111.884 65.119 112.038 64.3331 112.361 63.6108C112.639 63.012 113.091 62.5106 113.657 62.1714C114.242 61.8343 114.907 61.6633 115.582 61.6768ZM115.582 62.9643C115.34 62.9543 115.098 62.9959 114.873 63.0863C114.648 63.1766 114.444 63.3137 114.276 63.4885C113.945 63.8367 113.75 64.348 113.691 65.0223H117.355C117.358 64.6564 117.29 64.2934 117.155 63.9535C117.038 63.6584 116.837 63.4048 116.575 63.2254C116.278 63.0411 115.932 62.9501 115.582 62.9643ZM125.033 61.6768C125.168 61.6768 125.317 61.6768 125.476 61.699C125.617 61.7109 125.758 61.7307 125.896 61.7583L125.737 63.357C125.616 63.3246 125.492 63.3029 125.367 63.2921C125.218 63.2773 125.087 63.2699 124.97 63.2699C124.673 63.2689 124.378 63.3191 124.098 63.4181C123.822 63.5159 123.57 63.6698 123.357 63.8701C123.137 64.081 122.966 64.3378 122.857 64.6222C122.728 64.9558 122.665 65.3112 122.671 65.6688V69.8794H120.956V61.8306H122.293L122.525 63.2403H122.605C122.767 62.9525 122.967 62.6882 123.201 62.4548C123.438 62.2174 123.715 62.0242 124.02 61.8843C124.338 61.7416 124.684 61.6707 125.033 61.6768Z" fill="#371376"/>
</g>
</g>
<defs>
<clipPath id="clip0_943_3298">
<rect width="125.217" height="71.9079" fill="white" transform="translate(0.703125 0.5)"/>
</clipPath>
</defs>
</svg>
