<svg id="School_Logo" data-name="School Logo" xmlns="http://www.w3.org/2000/svg" width="165.772" height="110" viewBox="0 0 165.772 110">
  <g id="school-logo" transform="translate(0 0)">
    <g id="Group_1591" data-name="Group 1591" transform="translate(15.96 4.056)">
      <path id="Path_3745" data-name="Path 3745" d="M60.14,20.575,45.9,9.2l2.425,11.86L36.2,21.324,50.485,32.7l10.449-.22,25.218,20.1H89.37L62.256,30.98Zm-1.367.176,1.808,8.862-2.248-1.764-1.808-8.862Zm-4.365-3.483,1.808,8.862-2.248-1.764L52.16,15.5ZM47.8,11.978l2.248,1.764L51.851,22.6,49.6,20.839ZM39.33,22.6l9.082-.176,2.248,1.764-9.082.176Zm4.409,3.483,9.082-.176,2.248,1.764-9.082.22Zm6.613,5.246L48.1,29.569l9.082-.176,2.248,1.764Z" transform="translate(-36.2 -9.2)" fill="#fcc14f"/>
      <path id="Path_3746" data-name="Path 3746" d="M256.917,190.59l-29.1-23.19H224.6l30.685,24.469a30.747,30.747,0,0,0-7.8,1.058c10.493,1.543,20.5,8.289,24.469,10.669-3.218-3.351-11.992-11.551-15.828-21.471A28.26,28.26,0,0,0,256.917,190.59Z" transform="translate(-141.538 -97.653)" fill="#fcc14f"/>
      <path id="Path_3747" data-name="Path 3747" d="M224.063,53.068,249.9,32.479l10.493.22,14.285-11.375-12.124-.265L264.976,9.2,250.692,20.575l-2.16,10.4L220.8,53.068Zm36.461-21.735-9.082-.176,2.249-1.764,9.082.22Zm4.365-3.483-9.082-.176,2.249-1.764,9.082.176ZM271.5,22.6l-2.249,1.764-9.082-.176,2.249-1.764Zm-10.669-8.818,2.249-1.764-1.808,8.862-2.249,1.764Zm-4.409,3.483,2.249-1.764-1.808,8.862-2.249,1.764Zm-4.365,3.483,2.249-1.764L252.5,27.849l-2.249,1.764Z" transform="translate(-139.413 -9.2)" fill="#fcc14f"/>
      <path id="Path_3748" data-name="Path 3748" d="M90.727,168.6,62.29,191.261a31.179,31.179,0,0,0,.838-8.465c-3.836,9.92-12.653,18.12-15.828,21.471,3.968-2.381,13.976-9.126,24.469-10.669a29.073,29.073,0,0,0-7.8-1.058L93.989,168.6Z" transform="translate(-42.406 -98.323)" fill="#fcc14f"/>
    </g>
    <g id="Group_1592" data-name="Group 1592" transform="translate(65.306 88.22)">
      <path id="Path_3749" data-name="Path 3749" d="M149.348,202.24c-.265,0-.265,0-.265.176v.794c0,.617.044.661.353.705h.176c.044.044.044.132,0,.132H148.2c-.044,0-.044-.088,0-.132h.088c.309-.044.353-.132.353-.705v-2.072c0-.617-.044-.705-.353-.705h-.132c-.044-.044-.044-.132,0-.132h1.367c.044,0,.044.132,0,.132h-.088c-.353.044-.353.132-.353.705v.661c0,.176,0,.176.265.176h1.631c.265,0,.265,0,.265-.176v-.661c0-.617,0-.705-.353-.705H150.8c-.044-.044-.044-.132,0-.132h1.367c.044,0,.044.132,0,.132h-.132c-.353.044-.353.132-.353.705v2.072c0,.617,0,.661.353.705h.132c.044.044.044.132,0,.132h-1.411c-.044,0-.044-.088,0-.132h.088c.353-.044.353-.132.353-.705v-.794c0-.176,0-.176-.265-.176Z" transform="translate(-148.125 -200.212)" fill="#fff"/>
      <path id="Path_3750" data-name="Path 3750" d="M160.343,201.182c0-.617,0-.705-.353-.749h-.132c-.044-.044-.044-.132,0-.132h1.411c.044,0,.044.132,0,.132h-.132c-.353.044-.353.132-.353.749v2.028c0,.617,0,.705.353.749h.132c.044.044.044.132,0,.132h-1.411c-.044,0-.044-.088,0-.132h.132c.353-.044.353-.132.353-.749Z" transform="translate(-154.667 -200.212)" fill="#fff"/>
      <path id="Path_3751" data-name="Path 3751" d="M169.273,203.01v1.014c0,.044-.044.044-.088.044-.088-.088-.22-.309-.749-.882l-1.323-1.5c-.176-.176-.529-.661-.661-.794h0a.86.86,0,0,0-.044.353v1.234a5.033,5.033,0,0,0,.088,1.19.422.422,0,0,0,.309.088h.176c.044.044.044.132,0,.132H165.7a.083.083,0,0,1,0-.132h.176a.267.267,0,0,0,.265-.132,5.221,5.221,0,0,0,.088-1.19v-1.675a.444.444,0,0,0-.132-.4.5.5,0,0,0-.353-.132h-.088c-.044-.044-.044-.132,0-.132h.926a9.723,9.723,0,0,0,.97,1.279l.573.617c.4.441.661.75.926,1.058h0a.33.33,0,0,0,.044-.22V201.6a3.406,3.406,0,0,0-.132-1.19.7.7,0,0,0-.353-.132h-.088c-.044-.044-.044-.132,0-.132h1.234a.083.083,0,0,1,0,.132h-.088c-.176.044-.309.088-.309.132a5.223,5.223,0,0,0-.088,1.19Z" transform="translate(-157.91 -200.1)" fill="#fff"/>
      <path id="Path_3752" data-name="Path 3752" d="M177.9,201.049c0-.4-.044-.529-.265-.573H177.5c-.044-.044-.044-.132,0-.132.485-.044.97-.044,1.455-.044a3.9,3.9,0,0,1,1.279.176,1.653,1.653,0,0,1,1.146,1.675,1.867,1.867,0,0,1-1.014,1.719,2.474,2.474,0,0,1-1.279.265c-.353,0-.75-.044-.926-.044h-.705c-.044,0-.044-.088,0-.132h.132c.353-.044.353-.132.353-.705v-2.2Zm.441,2.072c0,.309,0,.485.132.617.132.176.353.22.705.22,1.1,0,1.631-.75,1.631-1.808A1.613,1.613,0,0,0,179,200.476a1.077,1.077,0,0,0-.573.088c-.044.044-.044.176-.044.441v2.116Z" transform="translate(-164.507 -200.212)" fill="#fff"/>
      <path id="Path_3753" data-name="Path 3753" d="M189.748,202.24c-.265,0-.265,0-.265.176v.794c0,.617.044.661.353.705h.176c.044.044.044.132,0,.132H188.6c-.044,0-.044-.088,0-.132h.088c.309-.044.353-.132.353-.705v-2.072c0-.617-.044-.705-.353-.705h-.132c-.044-.044-.044-.132,0-.132h1.367c.044,0,.044.132,0,.132h-.088c-.353.044-.353.132-.353.705v.661c0,.176,0,.176.265.176h1.631c.265,0,.265,0,.265-.176v-.661c0-.617,0-.705-.353-.705H191.2c-.044-.044-.044-.132,0-.132h1.367c.044,0,.044.132,0,.132h-.132c-.353.044-.353.132-.353.705v2.072c0,.617,0,.661.353.705h.132c.044.044.044.132,0,.132h-1.411c-.044,0-.044-.088,0-.132h.088c.353-.044.353-.132.353-.705v-.794c0-.176,0-.176-.265-.176Z" transform="translate(-170.713 -200.212)" fill="#fff"/>
      <path id="Path_3754" data-name="Path 3754" d="M200.731,201.238c0-.617,0-.661-.353-.705h-.088c-.044-.044-.044-.132,0-.132H202.8a3.166,3.166,0,0,1,.088.749c-.044.044-.132.044-.132,0-.088-.265-.132-.485-.441-.529a1.99,1.99,0,0,0-.573-.044h-.353c-.176,0-.176,0-.176.22v1.146c0,.176,0,.176.176.176h.353a1.371,1.371,0,0,0,.485-.044c.088-.044.088-.044.132-.22l.044-.22c.044-.044.132-.044.132,0,0,.132-.044.353-.044.573s.044.441.044.529c-.044.044-.132.044-.132,0l-.044-.22c-.044-.088-.044-.176-.176-.22a1.106,1.106,0,0,0-.441-.044h-.353c-.176,0-.176,0-.176.176v.794a1.134,1.134,0,0,0,.088.617c.088.088.176.132.705.132a2.182,2.182,0,0,0,.75-.088,1.345,1.345,0,0,0,.4-.573.084.084,0,0,1,.132.044,3.347,3.347,0,0,1-.265.794h-2.866c-.044,0-.044-.088,0-.132h.176c.309-.044.353-.132.353-.705v-2.072Z" transform="translate(-177.199 -200.268)" fill="#fff"/>
      <path id="Path_3755" data-name="Path 3755" d="M211.327,202.769c-.044-.132-.044-.132-.22-.132h-.882c-.132,0-.176,0-.22.132l-.22.617a2.006,2.006,0,0,0-.132.485c0,.088.044.088.176.132H210c.044.044.044.132,0,.132h-1.146c-.044-.044-.044-.132,0-.132h.176a.413.413,0,0,0,.353-.265c.088-.265.265-.617.485-1.279l.573-1.543c.088-.22.132-.309.088-.4a.791.791,0,0,0,.309-.22c.044,0,.088,0,.088.044.088.265.176.529.265.75l.794,2.293c.176.485.22.573.485.617h.176c.044.044.044.132,0,.132h-1.367c-.044-.044-.044-.132,0-.132h.176c.132,0,.22-.044.22-.088a1.8,1.8,0,0,0-.088-.309Zm-1.146-.485c-.044.132-.044.132.132.132h.705c.176,0,.176-.044.132-.176l-.309-.926a1.493,1.493,0,0,0-.132-.353h0c0,.044-.088.176-.132.353Z" transform="translate(-182.063 -200.212)" fill="#fff"/>
      <path id="Path_3756" data-name="Path 3756" d="M220.1,201.049c0-.4-.044-.529-.265-.573H219.7c-.044-.044-.044-.132,0-.132.485-.044.97-.044,1.455-.044a3.9,3.9,0,0,1,1.279.176,1.653,1.653,0,0,1,1.146,1.675,1.867,1.867,0,0,1-1.014,1.719,2.474,2.474,0,0,1-1.279.265c-.353,0-.749-.044-.926-.044h-.705c-.044,0-.044-.088,0-.132h.132c.353-.044.353-.132.353-.705v-2.2Zm.485,2.072c0,.309,0,.485.132.617.132.176.353.22.705.22,1.1,0,1.631-.75,1.631-1.808a1.613,1.613,0,0,0-1.808-1.675,1.077,1.077,0,0,0-.573.088c-.044.044-.044.176-.044.441v2.116Z" transform="translate(-188.102 -200.212)" fill="#fff"/>
    </g>
    <ellipse id="Ellipse_150" data-name="Ellipse 150" cx="2.204" cy="1.411" rx="2.204" ry="1.411" transform="translate(69.054 25.777) rotate(-26.409)" fill="#dc8f9a"/>
    <path id="Path_3757" data-name="Path 3757" d="M175.91,53.154l2.425-1.9L175.381,50.2h0L173,52.184Z" transform="translate(-96.727 -28.068)" fill="#fcc14f"/>
    <ellipse id="Ellipse_151" data-name="Ellipse 151" cx="1.411" cy="2.204" rx="1.411" ry="2.204" transform="translate(91.783 26.335) rotate(-64.227)" fill="#9c8eb7"/>
    <path id="Path_3758" data-name="Path 3758" d="M194.025,53.154l-2.425-1.9,2.954-1.058h0l2.381,1.984Z" transform="translate(-107.127 -28.068)" fill="#b8d9f0"/>
    <g id="Group_1593" data-name="Group 1593" transform="translate(0 52.774)">
      <path id="Path_3759" data-name="Path 3759" d="M4.188,136.772a7.507,7.507,0,0,1-3.571-.838A10.643,10.643,0,0,1,0,132.716c.132-.176.441-.22.529-.088.353,1.146,1.279,3.395,3.924,3.395a2.607,2.607,0,0,0,2.866-2.645,3.489,3.489,0,0,0-1.9-3.218l-2.16-1.411a4.882,4.882,0,0,1-2.469-3.924c0-2.16,1.675-3.924,4.673-3.924a7.9,7.9,0,0,1,2.116.309,3.26,3.26,0,0,0,.794.132,9.528,9.528,0,0,1,.4,2.778.468.468,0,0,1-.573.088,3.029,3.029,0,0,0-3.13-2.6,2.412,2.412,0,0,0-2.733,2.557,3.638,3.638,0,0,0,1.94,2.822l1.852,1.146a5.1,5.1,0,0,1,2.866,4.409C9.082,135.052,7.186,136.772,4.188,136.772Z" transform="translate(0 -120.371)" fill="#fff"/>
      <path id="Path_3760" data-name="Path 3760" d="M32.023,129.382c0,1.587.044,1.808.882,1.852l.485.088c.088.044.044.309-.044.353-.838-.044-1.367-.044-1.94-.044s-1.1,0-2.072.044c-.088-.044-.132-.309,0-.353l.529-.044c.838-.088.926-.309.926-1.852v-6.657c0-.441,0-.485-.441-.485H29.51a3.4,3.4,0,0,0-1.852.353A2.872,2.872,0,0,0,27,123.651a.337.337,0,0,1-.4-.088c.22-.661.441-1.631.573-2.2a.281.281,0,0,1,.265,0c.088.485.573.441,1.279.441h6.04c.794,0,.926-.044,1.146-.4a.271.271,0,0,1,.265.044,8.418,8.418,0,0,0-.22,2.248c-.044.132-.309.132-.4.044-.044-.353-.132-.926-.353-1.1a2.945,2.945,0,0,0-1.719-.353H32.42c-.441,0-.441,0-.441.485v6.613Z" transform="translate(-14.873 -120.609)" fill="#fff"/>
      <path id="Path_3761" data-name="Path 3761" d="M74.1,125.083c0-2.381-.044-2.733-1.411-2.866l-.353-.044c-.132-.088-.088-.485.044-.573.97.044,1.764.088,2.689.088h4.321a23.879,23.879,0,0,0,3.086-.088,26.633,26.633,0,0,1,.353,3.042.462.462,0,0,1-.573.044c-.353-1.058-.529-1.9-1.719-2.16a9.861,9.861,0,0,0-2.2-.132H76.7c-.705,0-.705.044-.705.926V127.9c0,.661.088.661.749.661h1.323a8.627,8.627,0,0,0,1.94-.132c.265-.088.441-.22.529-.794l.176-1.014c.132-.132.485-.132.573.044,0,.529-.088,1.455-.088,2.293s.088,1.675.088,2.2a.415.415,0,0,1-.573.044l-.22-.882a1.047,1.047,0,0,0-.705-.882,7.541,7.541,0,0,0-1.764-.132H76.7c-.705,0-.749.044-.749.617v3.218a3.8,3.8,0,0,0,.441,2.381c.265.265.749.529,2.778.529a6.283,6.283,0,0,0,2.91-.353,5.967,5.967,0,0,0,1.631-2.2.4.4,0,0,1,.573.176,26.886,26.886,0,0,1-1.014,3.174c-2.072-.044-4.1-.088-6.128-.088H75.073c-.97,0-1.764.044-3.13.088a.462.462,0,0,1-.044-.573l.749-.088c1.323-.132,1.411-.441,1.411-2.866v-8.244Z" transform="translate(-40.155 -120.762)" fill="#fff"/>
      <path id="Path_3762" data-name="Path 3762" d="M109.594,124.642c0-1.587-.132-2.072-1.058-2.2l-.485-.088c-.176-.132-.22-.485.044-.573,1.94-.132,3.792-.176,5.731-.176a13.734,13.734,0,0,1,5.026.705,6.845,6.845,0,0,1,4.629,6.745,7.535,7.535,0,0,1-4.012,6.834,11.126,11.126,0,0,1-5.114,1.1c-1.455,0-2.91-.176-3.747-.176-.97,0-1.808.044-2.866.088a.462.462,0,0,1-.044-.573l.529-.088c1.323-.176,1.367-.441,1.367-2.866Zm1.852,8.156a4.65,4.65,0,0,0,.441,2.513c.485.705,1.367.926,2.822.926,4.453,0,6.437-2.91,6.437-7.186,0-2.513-1.234-6.79-7.23-6.79a5.072,5.072,0,0,0-2.248.309c-.176.132-.22.705-.22,1.719Z" transform="translate(-60.172 -120.762)" fill="#fff"/>
      <path id="Path_3763" data-name="Path 3763" d="M158.831,130.57c.529,1.058,1.014,2.116,1.587,3.13h.044c.617-1.058,1.19-2.249,1.764-3.439l2.16-4.365c1.014-2.072,1.675-3.351,1.719-4.409a13.791,13.791,0,0,0,1.719.088c.573,0,1.323-.044,2.028-.088a.542.542,0,0,1,.044.573l-.485.044c-1.455.132-1.631.573-1.587,2.16.044,2.425.088,6.657.265,9.964.088,1.146.044,1.764,1.1,1.852l.749.088c.132.132.132.485-.044.573-.926-.044-1.9-.088-2.689-.088s-1.852.044-2.778.088a.415.415,0,0,1-.044-.573l.661-.088c1.1-.132,1.1-.485,1.1-1.94l-.088-9.567h-.044c-.176.265-1.014,2.072-1.5,3l-2.028,4.012c-1.014,2.028-2.072,4.188-2.469,5.2-.044.088-.132.088-.22.088a.465.465,0,0,1-.22-.088c-.4-1.234-1.5-3.439-2.028-4.585l-2.072-4.409c-.485-1.058-.97-2.248-1.455-3.307h-.044c-.088,1.411-.176,2.733-.22,4.056-.088,1.411-.176,3.439-.176,5.379,0,1.675.132,2.072,1.014,2.116l.882.088a.377.377,0,0,1-.044.573c-.794-.044-1.675-.088-2.557-.088-.749,0-1.543.044-2.337.088a.467.467,0,0,1-.044-.573l.485-.088c.97-.132,1.279-.265,1.411-1.9.132-1.5.265-2.778.4-5.026.132-1.9.22-3.836.265-5.114.044-1.455-.132-1.764-1.543-1.984l-.353-.044a.418.418,0,0,1,.088-.573c.705.044,1.234.088,1.808.088a15.318,15.318,0,0,0,1.9-.088,9.088,9.088,0,0,0,1.19,3.792Z" transform="translate(-84.102 -120.651)" fill="#fff"/>
      <path id="Path_3764" data-name="Path 3764" d="M216.861,127.42c0-1.411-.044-4.056-.441-4.717a1.474,1.474,0,0,0-1.146-.485l-.573-.044a.4.4,0,0,1,.044-.529c.882.044,1.719.088,2.6.088.97,0,1.587-.044,2.425-.088a.363.363,0,0,1,.044.529l-.529.044a1.411,1.411,0,0,0-1.146.529,21.253,21.253,0,0,0-.309,4.673v2.6c0,1.984-.309,4.1-1.587,5.467a6.094,6.094,0,0,1-4.365,1.675,6.412,6.412,0,0,1-4.277-1.279c-1.234-1.014-1.764-2.689-1.764-5.423v-5.423c0-2.381-.044-2.778-1.367-2.866l-.573-.044c-.132-.088-.088-.485.044-.529,1.146.044,1.94.088,2.822.088.926,0,1.675-.044,2.822-.088.132.088.176.441.044.529l-.529.044c-1.323.132-1.367.485-1.367,2.866v4.938c0,3.7,1.146,6.128,4.629,6.128,3.307,0,4.585-2.6,4.585-6.084v-2.6Z" transform="translate(-113.959 -120.762)" fill="#fff"/>
      <path id="Path_3765" data-name="Path 3765" d="M262.918,132.942c0,.705,0,3.395.088,4.012a.421.421,0,0,1-.441.265c-.265-.4-.926-1.19-2.91-3.439l-5.291-6.04c-.617-.705-2.16-2.6-2.645-3.086h-.044a5.714,5.714,0,0,0-.132,1.5v4.938c0,1.058.044,4.056.4,4.717.132.265.573.4,1.146.441l.705.088a.412.412,0,0,1-.044.573c-1.014-.044-1.852-.088-2.689-.088-.97,0-1.587.044-2.381.088a.415.415,0,0,1-.044-.573l.617-.088c.529-.088.882-.22,1.014-.441a22.933,22.933,0,0,0,.309-4.717v-6.613a2.184,2.184,0,0,0-.485-1.631,2.382,2.382,0,0,0-1.411-.529l-.4-.044c-.132-.132-.132-.485.044-.573.97.088,2.16.088,2.6.088a7.9,7.9,0,0,0,1.058-.088c.441,1.146,3.174,4.188,3.924,5.026l2.2,2.513c1.587,1.764,2.689,3.042,3.792,4.144h.044a2.482,2.482,0,0,0,.088-.97V127.52c0-1.058-.044-4.056-.441-4.717-.132-.22-.485-.353-1.411-.441l-.4-.044a.377.377,0,0,1,.044-.573c1.058.044,1.852.088,2.689.088.97,0,1.587-.044,2.337-.088a.415.415,0,0,1,.044.573l-.309.044c-.75.132-1.19.309-1.279.485-.4.838-.353,3.659-.353,4.717v5.379Z" transform="translate(-138.765 -120.818)" fill="#fff"/>
      <path id="Path_3766" data-name="Path 3766" d="M296.695,124.642c0-1.587-.132-2.072-1.058-2.2l-.485-.088c-.176-.132-.22-.485.044-.573,1.94-.132,3.792-.176,5.731-.176a13.735,13.735,0,0,1,5.026.705,6.845,6.845,0,0,1,4.629,6.745,7.535,7.535,0,0,1-4.012,6.834,11.126,11.126,0,0,1-5.114,1.1c-1.455,0-2.91-.176-3.747-.176-.97,0-1.808.044-2.866.088a.462.462,0,0,1-.044-.573l.529-.088c1.323-.176,1.367-.441,1.367-2.866Zm1.852,8.156a4.65,4.65,0,0,0,.441,2.513c.485.705,1.367.926,2.822.926,4.453,0,6.437-2.91,6.437-7.186,0-2.513-1.234-6.79-7.23-6.79a5.072,5.072,0,0,0-2.249.309c-.176.132-.22.705-.22,1.719Z" transform="translate(-164.783 -120.762)" fill="#fff"/>
      <path id="Path_3767" data-name="Path 3767" d="M342.41,121.9a3.414,3.414,0,0,1-2.689,3.13.371.371,0,0,1-.176-.485c.838-.4,1.719-1.014,1.719-1.984a1.225,1.225,0,0,0-1.146-1.279.641.641,0,0,1-.617-.661c0-.353.22-.926,1.1-.926A2.074,2.074,0,0,1,342.41,121.9Z" transform="translate(-189.821 -119.7)" fill="#fff"/>
      <path id="Path_3768" data-name="Path 3768" d="M359.788,136.772a7.508,7.508,0,0,1-3.571-.838,10.643,10.643,0,0,1-.617-3.218c.132-.176.441-.22.529-.088.353,1.146,1.279,3.395,3.924,3.395a2.607,2.607,0,0,0,2.866-2.645,3.49,3.49,0,0,0-1.9-3.218l-2.16-1.411a4.882,4.882,0,0,1-2.469-3.924c0-2.16,1.675-3.924,4.673-3.924a7.9,7.9,0,0,1,2.116.309,3.26,3.26,0,0,0,.794.132,9.527,9.527,0,0,1,.4,2.778.468.468,0,0,1-.573.088,3.029,3.029,0,0,0-3.13-2.6,2.412,2.412,0,0,0-2.733,2.557,3.638,3.638,0,0,0,1.94,2.822l1.852,1.146a5.1,5.1,0,0,1,2.866,4.409C364.638,135.052,362.742,136.772,359.788,136.772Z" transform="translate(-198.822 -120.371)" fill="#fff"/>
    </g>
    <path id="Path_3769" data-name="Path 3769" d="M35.14,152.66l1.94-1.058-1.94-1.1h0l-1.94,1.1Z" transform="translate(-18.563 -84.147)" fill="#fcc14f"/>
    <path id="Path_3770" data-name="Path 3770" d="M143.552,26.232a26.458,26.458,0,0,1,32.89,0,.1.1,0,0,0,.088-.088c5.335-8.862,5.643-20.986,5.643-21.074A.225.225,0,0,0,182,4.85c-.088-.044-.176,0-.265.088a5.821,5.821,0,0,1-2.557,2.248h-.044a1.541,1.541,0,0,0-.838,1.014,1.708,1.708,0,0,0,.4,1.367,3.09,3.09,0,0,0,.353.441,2.14,2.14,0,0,1,.749,1.411.95.95,0,0,1-.529.573.647.647,0,0,1-.573,0c-.22-.132-.22-.441-.22-.926s.044-1.058-.441-1.367a.98.98,0,0,0-.926-.044,2.806,2.806,0,0,0-1.19,1.19.334.334,0,0,0-.088.176,1.905,1.905,0,0,1-.926,1.014c-.044.044-.132.088-.132.132,0,.088,0,.132.044.176a2.042,2.042,0,0,1,.309,1.367v.22a2.522,2.522,0,0,0,.485,1.587,1.007,1.007,0,0,0,.838.441c.573-.044.882-.617,1.1-1.014a.963.963,0,0,1,.132-.22c.176-.265.441-.529.661-.529.044,0,.176,0,.353.265a1.643,1.643,0,0,1,.088,1.19,3.86,3.86,0,0,1-.529,1.146l-.044.044c-.661,1.234-2.116,3.307-4.188,3.086a.4.4,0,0,1-.22-.044c-.75-.132-1.146-.661-1.323-1.675a26.055,26.055,0,0,1,0-3.263.242.242,0,0,0-.132-.22.292.292,0,0,0-.265.044,5.318,5.318,0,0,1-1.852,1.411,12.7,12.7,0,0,1-2.557,1.1,5.2,5.2,0,0,1-4.144-.353,5.1,5.1,0,0,1-2.16-4.717v-.044c.088-1.014.309-1.9.97-1.852.4.044.617.441.838,1.058a2.8,2.8,0,0,0,.617,1.058,1.2,1.2,0,0,0,1.234.309,1.711,1.711,0,0,0,1.014-1.279,3.464,3.464,0,0,1,1.279-1.808.22.22,0,0,0,0-.353,3.255,3.255,0,0,1-1.279-1.808,1.711,1.711,0,0,0-1.014-1.279,1.233,1.233,0,0,0-1.234.309,3.523,3.523,0,0,0-.617,1.058c-.265.617-.441,1.058-.838,1.058a1,1,0,0,1-1.014-.309.73.73,0,0,1-.132-.749,3.215,3.215,0,0,1,1.234-1.323.774.774,0,0,0,.22-.176l.044-.044c.132-.132.309-.22.441-.353a1.678,1.678,0,0,0,.617-.838,2.042,2.042,0,0,0-1.455-2.6,3.3,3.3,0,0,1-2.2-2.072.226.226,0,0,0-.441,0,3,3,0,0,1-2.2,2.072,2.042,2.042,0,0,0-1.455,2.6,2.949,2.949,0,0,0,.617.838c.132.132.309.22.441.353l.044.044a.774.774,0,0,1,.22.176,3.216,3.216,0,0,1,1.234,1.323,1.01,1.01,0,0,1-.132.749c-.22.309-.573.309-1.014.309-.4-.044-.617-.441-.838-1.058a2.8,2.8,0,0,0-.617-1.058,1.2,1.2,0,0,0-1.234-.309,1.711,1.711,0,0,0-1.014,1.279A3.464,3.464,0,0,1,152.414,9.3a.22.22,0,0,0,0,.353,3.459,3.459,0,0,1,1.323,1.808,1.711,1.711,0,0,0,1.014,1.279,1.233,1.233,0,0,0,1.234-.309,3.523,3.523,0,0,0,.617-1.058c.265-.617.441-1.058.838-1.058.705-.044.882.882.97,1.852v.044a5.015,5.015,0,0,1-2.16,4.717,5.2,5.2,0,0,1-4.144.353,13.911,13.911,0,0,1-2.557-1.1A5.917,5.917,0,0,1,147.7,14.77c-.044-.088-.176-.088-.265-.044a.242.242,0,0,0-.132.22,26.146,26.146,0,0,1,0,3.263c-.176,1.058-.573,1.543-1.323,1.675-.088,0-.132.044-.22.044-2.072.22-3.483-1.808-4.188-3.086l-.044-.044a5.41,5.41,0,0,1-.529-1.146,1.643,1.643,0,0,1,.088-1.19c.132-.265.309-.265.353-.265a.957.957,0,0,1,.661.529c.044.088.088.132.132.22.22.4.529.97,1.1,1.014a1.007,1.007,0,0,0,.838-.441,2.71,2.71,0,0,0,.485-1.587v-.22a2.1,2.1,0,0,1,.309-1.367.265.265,0,0,0,.044-.176.141.141,0,0,0-.132-.132c-.441-.176-.661-.617-.926-1.014a.334.334,0,0,1-.088-.176,3.08,3.08,0,0,0-1.19-1.19.98.98,0,0,0-.926.044c-.485.309-.441.882-.441,1.367s0,.794-.22.926a.532.532,0,0,1-.573,0,.95.95,0,0,1-.529-.573,2.14,2.14,0,0,1,.749-1.411c.132-.176.265-.309.353-.441a1.708,1.708,0,0,0,.4-1.367,1.541,1.541,0,0,0-.838-1.014H140.6a6.076,6.076,0,0,1-2.557-2.248.2.2,0,0,0-.265-.088.293.293,0,0,0-.176.22c0,.132.309,12.257,5.687,21.074C143.464,26.188,143.508,26.232,143.552,26.232ZM178.47,13.094a.293.293,0,0,1-.22.176h-.044l-1.984-.617a.209.209,0,0,1,.132-.4l1.984.617A.168.168,0,0,1,178.47,13.094ZM163.744,9.259h2.072a.22.22,0,1,1,0,.441h-2.072a.22.22,0,0,1,0-.441Zm-3.968-6.922a.22.22,0,0,1,.441,0V6.349a.22.22,0,0,1-.441,0ZM156.205,9.7h-2.072a.22.22,0,1,1,0-.441h2.072a.22.22,0,0,1,0,.441Zm-14.593,3.13,1.984-.617a.209.209,0,0,1,.132.4l-1.984.617H141.7a.225.225,0,0,1-.22-.176C141.436,13.006,141.524,12.874,141.612,12.83Z" transform="translate(-76.935)" fill="#fcc14f"/>
    <path id="Path_3771" data-name="Path 3771" d="M183.5,53.025a26.15,26.15,0,0,0-34.565,0,.426.426,0,0,0,0,.617.426.426,0,0,0,.617,0,22.668,22.668,0,0,1,7.671-4.717l1.234,3.527a21.726,21.726,0,0,0-7.142,4.1.429.429,0,0,0-.044.617.433.433,0,0,0,.573.044,21.718,21.718,0,0,1,14.329-5.158A21.95,21.95,0,0,1,180.5,57.213a.324.324,0,0,0,.265.088.343.343,0,0,0,.309-.132.429.429,0,0,0-.044-.617,21.93,21.93,0,0,0-7.186-4.1l1.234-3.527a21.175,21.175,0,0,1,7.715,4.717.426.426,0,0,0,.617,0A.379.379,0,0,0,183.5,53.025ZM174.5,48.7l-1.234,3.527a23.886,23.886,0,0,0-6.657-1.058V47.382A25.978,25.978,0,0,1,174.5,48.7Zm-8.6-1.323v3.792a24.46,24.46,0,0,0-6.7,1.058L157.97,48.7A26.035,26.035,0,0,1,165.906,47.382Zm-8.465,1.5a.627.627,0,0,1,.265-.088l1.234,3.527c-.088.044-.176.044-.265.088Zm8.685,2.293V47.382h.265v3.792h-.265Zm7.627,1.19c-.088-.044-.176-.044-.265-.088l1.234-3.527c.088.044.176.044.265.088Z" transform="translate(-83.197 -25.999)" fill="#fff"/>
  </g>
</svg>
