<svg id="Group_2" data-name="Group 2" xmlns="http://www.w3.org/2000/svg" xmlns:xlink="http://www.w3.org/1999/xlink" width="412.811" height="501.501" viewBox="0 0 412.811 501.501">
  <defs>
    <clipPath id="clip-path">
      <rect id="Rectangle_1" data-name="Rectangle 1" width="412.811" height="501.501" fill="none"/>
    </clipPath>
  </defs>
  <g id="Group_1" data-name="Group 1" clip-path="url(#clip-path)">
    <path id="Path_1" data-name="Path 1" d="M410.7,313.815c-.646-2.049-7.852-23.965-17.646-52.865-7.157-21.127-27.684-22.692-40.039-22.8A310.49,310.49,0,0,0,375.04,122.072V0H37.583V122.072c0,45.26,8.483,83.816,20.972,116.1-12.447.215-31.875,2.348-38.8,22.782-9.791,28.9-17,50.816-17.645,52.865-.853,2.252-6.552,19.069,5.325,37.862l.4.637c6.229,9.872,19.878,29.417,49.255,50.37,84.915,60.565,210.822,59.34,298.625,0,29.9-20.2,43.026-40.5,49.253-50.37l.4-.637c11.875-18.793,6.176-35.61,5.323-37.862M77.134,344.509s3.3-10.452,6.6-19.254c2.148-5.732,6.394-16.357,9.1-23.075A294.786,294.786,0,0,0,113.649,328.4c28.167,31.592,56.825,50.125,70.264,57.836-59.892-7.2-106.779-41.731-106.779-41.731M228.4,386.3c12.431-7.577,41.9-27.4,70.93-60.748a316.574,316.574,0,0,0,19.86-25.315c2.584,6.418,7.511,18.7,9.881,25.023,3.3,8.8,6.6,19.254,6.6,19.254S291.215,379.041,228.4,386.3" fill="#fff"/>
    <path id="Path_2" data-name="Path 2" d="M401.652,318.525l-.079-.191-.062-.194c-.055-.182-11.98-35.447-11.98-35.447s.4,11.486-8.557,27.3c-26.4,46.618-102.072,86.117-174.567,86.241s-148.2-40.85-174.571-86.241c-9.127-15.71-8.555-27.3-8.555-27.3S11.355,317.958,11.3,318.14l-.062.194-.077.191c-.209.532-5.279,13.85,4.457,29.258l.405.646C48.873,400.5,122.415,439.56,206.4,439.167S363.938,400.5,396.788,348.429l.407-.646c9.734-15.408,4.664-28.726,4.457-29.258" fill="#130c0e"/>
    <path id="Path_3" data-name="Path 3" d="M195.926,381.727c-1.555-.748-38.517-18.785-75.054-59.762C87.291,284.3,47.26,219.048,47.26,122.071V9.677h318.1V122.071c0,73.861-25.355,142.024-73.328,197.119-36.21,41.586-72.726,61.271-74.263,62.09l-10.811,5.752Z" fill="#ffc10e"/>
    <path id="Path_4" data-name="Path 4" d="M206.029,183.81l-88.972,93.93c39.163,58.054,89.35,82.18,89.35,82.18s50.576-26.92,89.761-85.971Z" fill="#130c0e"/>
    <path id="Path_5" data-name="Path 5" d="M71.456,33.873v88.2c0,39.145,6.924,72.733,17.618,101.307L206.029,106.423,322.651,223.044c11.209-28.731,18.518-62.289,18.518-100.973v-88.2Z" fill="#130c0e"/>
    <path id="Path_6" data-name="Path 6" d="M130.647,170.321,93.305,107.373l37.34-62.944,37.342,62.944Z" fill="#ffc10e"/>
    <path id="Path_7" data-name="Path 7" d="M140.714,65.93a2.036,2.036,0,0,0-2.623-1.194c-.981.367-6.429,4.29-7.185,4.837v-.822c.635-2.353,2.229-8.364,2.229-9.465a2.487,2.487,0,0,0-4.975,0c0,1.1,1.594,7.108,2.229,9.461v.826c-.758-.547-6.205-4.47-7.185-4.837a2.038,2.038,0,1,0-1.43,3.817c.986.371,7.747,1,8.615,1.079V74.27a1.407,1.407,0,0,0-1.167,1.374v1.369c-.152.038-5.018,1.309-5.666,1.683a1.377,1.377,0,1,0,1.376,2.385c.649-.376,4.21-3.979,4.29-4.059v3.289c-.667.247-5.178,1.924-5.792,2.364a1.476,1.476,0,1,0,1.719,2.4c.6-.429,3.543-4.033,4.073-4.686v2.147a1.42,1.42,0,0,0,.435,1.02c-.724.448-4.886,3.03-5.418,3.6a1.545,1.545,0,0,0,2.258,2.108c.532-.573,2.837-4.94,3.221-5.666a1.414,1.414,0,0,0,.876.354c-.31,1.137-1.982,7.3-1.982,8.323a2.035,2.035,0,0,0,4.07,0c0-1.019-1.669-7.188-1.979-8.323a1.423,1.423,0,0,0,.875-.354c.381.726,2.689,5.093,3.221,5.666a1.544,1.544,0,0,0,2.256-2.108c-.532-.569-4.692-3.151-5.417-3.6a1.42,1.42,0,0,0,.435-1.02V80.388c.53.653,3.472,4.257,4.072,4.686a1.476,1.476,0,1,0,1.719-2.4c-.613-.44-5.125-2.117-5.791-2.364V77.022c.079.08,3.641,3.683,4.288,4.059a1.377,1.377,0,0,0,1.378-2.385c-.649-.374-5.514-1.645-5.666-1.683V75.644a1.407,1.407,0,0,0-1.167-1.374V69.632c.866-.079,7.629-.708,8.616-1.079a2.037,2.037,0,0,0,1.192-2.623" fill="#130c0e"/>
    <path id="Path_8" data-name="Path 8" d="M140.714,129.571a2.037,2.037,0,0,0-2.623-1.194c-.981.367-6.429,4.288-7.185,4.835v-.822c.635-2.351,2.229-8.362,2.229-9.463a2.487,2.487,0,0,0-4.975,0c0,1.1,1.594,7.108,2.229,9.461v.824c-.758-.547-6.205-4.468-7.185-4.835a2.038,2.038,0,1,0-1.43,3.817c.986.369,7.747,1,8.615,1.079v4.637a1.406,1.406,0,0,0-1.167,1.373v1.371c-.152.038-5.018,1.307-5.666,1.682a1.377,1.377,0,1,0,1.376,2.386c.649-.376,4.21-3.979,4.29-4.059v3.288c-.667.246-5.178,1.925-5.792,2.363a1.476,1.476,0,1,0,1.719,2.4c.6-.431,3.543-4.035,4.073-4.686v2.146a1.413,1.413,0,0,0,.435,1.019c-.724.45-4.886,3.032-5.418,3.6a1.545,1.545,0,1,0,2.258,2.11c.532-.573,2.837-4.94,3.221-5.668a1.392,1.392,0,0,0,.876.354c-.31,1.139-1.982,7.306-1.982,8.324a2.035,2.035,0,1,0,4.07,0c0-1.018-1.669-7.187-1.979-8.324a1.4,1.4,0,0,0,.875-.354c.381.728,2.689,5.1,3.221,5.668a1.544,1.544,0,0,0,2.256-2.11c-.532-.567-4.692-3.149-5.417-3.6a1.416,1.416,0,0,0,.435-1.019v-2.146c.53.651,3.472,4.255,4.072,4.686a1.476,1.476,0,0,0,1.719-2.4c-.613-.438-5.125-2.117-5.791-2.363v-3.288c.079.08,3.641,3.683,4.288,4.059a1.378,1.378,0,0,0,1.378-2.386c-.649-.375-5.514-1.644-5.666-1.682v-1.371a1.406,1.406,0,0,0-1.167-1.372v-4.638c.866-.081,7.629-.71,8.616-1.079a2.037,2.037,0,0,0,1.192-2.623" fill="#130c0e"/>
    <path id="Path_9" data-name="Path 9" d="M158.394,99.464a2.038,2.038,0,0,0-2.625-1.192c-.979.367-6.427,4.288-7.185,4.835v-.822c.635-2.351,2.229-8.364,2.229-9.463a2.487,2.487,0,0,0-4.974,0c0,1.1,1.594,7.106,2.226,9.461v.824c-.753-.547-6.2-4.468-7.184-4.835a2.038,2.038,0,0,0-1.431,3.817c.989.369,7.751,1,8.615,1.077V107.8a1.408,1.408,0,0,0-1.164,1.374v1.369c-.153.04-5.019,1.309-5.666,1.683a1.378,1.378,0,1,0,1.377,2.387c.648-.378,4.208-3.979,4.289-4.059v3.286c-.668.248-5.178,1.927-5.793,2.365a1.476,1.476,0,1,0,1.721,2.4c.6-.429,3.542-4.033,4.072-4.685v2.146a1.416,1.416,0,0,0,.434,1.02c-.726.45-4.888,3.031-5.418,3.6a1.545,1.545,0,1,0,2.258,2.108c.53-.571,2.838-4.938,3.221-5.666a1.4,1.4,0,0,0,.877.354c-.31,1.137-1.983,7.3-1.983,8.324a2.035,2.035,0,1,0,4.07,0c0-1.02-1.671-7.187-1.981-8.324a1.408,1.408,0,0,0,.877-.354c.381.728,2.689,5.1,3.221,5.666a1.545,1.545,0,1,0,2.258-2.108c-.532-.568-4.694-3.149-5.419-3.6a1.415,1.415,0,0,0,.433-1.02v-2.146c.53.652,3.474,4.256,4.074,4.685a1.476,1.476,0,1,0,1.719-2.4c-.615-.438-5.123-2.117-5.793-2.365v-3.286c.081.08,3.641,3.681,4.292,4.059a1.378,1.378,0,0,0,1.376-2.387c-.649-.374-5.514-1.643-5.668-1.683v-1.369a1.4,1.4,0,0,0-1.165-1.372v-4.64c.866-.079,7.629-.708,8.616-1.077a2.042,2.042,0,0,0,1.194-2.625" fill="#130c0e"/>
    <path id="Path_10" data-name="Path 10" d="M123.037,99.464a2.037,2.037,0,0,0-2.625-1.192c-.979.367-6.427,4.288-7.185,4.835v-.822c.637-2.351,2.229-8.364,2.229-9.463a2.487,2.487,0,1,0-4.974,0c0,1.1,1.594,7.106,2.228,9.461v.824c-.756-.547-6.205-4.468-7.186-4.835a2.038,2.038,0,1,0-1.429,3.817c.988.369,7.749,1,8.615,1.077V107.8a1.41,1.41,0,0,0-1.166,1.374v1.369c-.151.04-5.017,1.309-5.666,1.683a1.378,1.378,0,0,0,1.377,2.387c.648-.378,4.21-3.979,4.289-4.059v3.286c-.666.248-5.177,1.927-5.793,2.365a1.476,1.476,0,0,0,1.721,2.4c.6-.429,3.541-4.033,4.072-4.685v2.146a1.416,1.416,0,0,0,.434,1.02c-.726.45-4.886,3.031-5.416,3.6a1.544,1.544,0,1,0,2.256,2.108c.53-.571,2.837-4.938,3.221-5.666a1.408,1.408,0,0,0,.877.354c-.31,1.137-1.981,7.3-1.981,8.324a2.034,2.034,0,1,0,4.068,0c0-1.02-1.669-7.187-1.981-8.324a1.408,1.408,0,0,0,.877-.354c.383.728,2.689,5.1,3.221,5.666a1.545,1.545,0,0,0,2.258-2.108c-.532-.568-4.692-3.149-5.419-3.6a1.409,1.409,0,0,0,.435-1.02v-2.146c.53.652,3.474,4.256,4.074,4.685a1.476,1.476,0,1,0,1.719-2.4c-.617-.438-5.125-2.117-5.793-2.365v-3.286c.079.08,3.639,3.681,4.29,4.059a1.378,1.378,0,0,0,1.378-2.387c-.651-.374-5.516-1.643-5.668-1.683v-1.369a1.4,1.4,0,0,0-1.167-1.372v-4.64c.866-.079,7.629-.708,8.616-1.077a2.04,2.04,0,0,0,1.194-2.625" fill="#130c0e"/>
    <path id="Path_11" data-name="Path 11" d="M282.008,170.321l-37.342-62.948,37.342-62.944,37.342,62.944Z" fill="#ffc10e"/>
    <path id="Path_12" data-name="Path 12" d="M292.076,65.93a2.039,2.039,0,0,0-2.625-1.194c-.979.367-6.427,4.29-7.185,4.837v-.822c.635-2.353,2.229-8.364,2.229-9.465a2.487,2.487,0,1,0-4.974,0c0,1.1,1.594,7.108,2.228,9.461v.826c-.756-.547-6.2-4.47-7.185-4.837a2.038,2.038,0,0,0-1.43,3.817c.987.371,7.749,1,8.615,1.079V74.27a1.407,1.407,0,0,0-1.166,1.374v1.369c-.153.038-5.019,1.309-5.666,1.683a1.377,1.377,0,1,0,1.377,2.385c.648-.376,4.208-3.979,4.289-4.059v3.289c-.666.247-5.178,1.924-5.791,2.364a1.476,1.476,0,1,0,1.719,2.4c.6-.429,3.541-4.033,4.072-4.686v2.147a1.42,1.42,0,0,0,.434,1.02c-.724.448-4.886,3.03-5.418,3.6a1.545,1.545,0,0,0,2.258,2.108c.532-.573,2.837-4.94,3.221-5.666a1.421,1.421,0,0,0,.877.354c-.31,1.137-1.983,7.3-1.983,8.323a2.036,2.036,0,0,0,4.072,0c0-1.019-1.671-7.188-1.981-8.323a1.418,1.418,0,0,0,.875-.354c.381.726,2.689,5.093,3.221,5.666a1.545,1.545,0,0,0,2.258-2.108c-.532-.569-4.694-3.151-5.419-3.6a1.42,1.42,0,0,0,.435-1.02V80.388c.53.653,3.472,4.257,4.074,4.686a1.476,1.476,0,1,0,1.719-2.4c-.615-.44-5.125-2.117-5.793-2.364V77.022c.081.08,3.641,3.683,4.29,4.059A1.377,1.377,0,1,0,289.1,78.7c-.648-.374-5.514-1.645-5.666-1.683V75.644a1.407,1.407,0,0,0-1.167-1.374V69.632c.868-.079,7.629-.708,8.616-1.079a2.039,2.039,0,0,0,1.194-2.623" fill="#130c0e"/>
    <path id="Path_13" data-name="Path 13" d="M292.076,129.571a2.04,2.04,0,0,0-2.625-1.194c-.979.367-6.427,4.288-7.185,4.835v-.822c.635-2.351,2.229-8.362,2.229-9.463a2.487,2.487,0,0,0-4.974,0c0,1.1,1.594,7.108,2.228,9.461v.824c-.756-.547-6.2-4.468-7.185-4.835a2.038,2.038,0,0,0-1.43,3.817c.987.369,7.749,1,8.615,1.079v4.637a1.406,1.406,0,0,0-1.166,1.373v1.371c-.153.038-5.019,1.307-5.666,1.682a1.377,1.377,0,1,0,1.377,2.386c.648-.376,4.208-3.979,4.289-4.059v3.288c-.666.246-5.178,1.925-5.791,2.363a1.476,1.476,0,1,0,1.719,2.4c.6-.431,3.541-4.035,4.072-4.686v2.146a1.412,1.412,0,0,0,.434,1.019c-.724.45-4.886,3.032-5.418,3.6a1.545,1.545,0,1,0,2.258,2.11c.532-.573,2.837-4.94,3.221-5.668a1.4,1.4,0,0,0,.877.354c-.31,1.139-1.983,7.306-1.983,8.324a2.036,2.036,0,0,0,4.072,0c0-1.018-1.671-7.187-1.981-8.324a1.4,1.4,0,0,0,.875-.354c.381.728,2.689,5.1,3.221,5.668a1.545,1.545,0,0,0,2.258-2.11c-.532-.567-4.694-3.149-5.419-3.6a1.416,1.416,0,0,0,.435-1.019v-2.146c.53.651,3.472,4.255,4.074,4.686a1.476,1.476,0,0,0,1.719-2.4c-.615-.438-5.125-2.117-5.793-2.363v-3.288c.081.08,3.641,3.683,4.29,4.059a1.377,1.377,0,1,0,1.376-2.386c-.648-.375-5.514-1.644-5.666-1.682v-1.371a1.406,1.406,0,0,0-1.167-1.372v-4.638c.868-.081,7.629-.71,8.616-1.079a2.039,2.039,0,0,0,1.194-2.623" fill="#130c0e"/>
    <path id="Path_14" data-name="Path 14" d="M309.754,99.464a2.037,2.037,0,0,0-2.625-1.192c-.979.367-6.427,4.288-7.185,4.835v-.822c.637-2.351,2.229-8.364,2.229-9.463a2.487,2.487,0,0,0-4.974,0c0,1.1,1.594,7.106,2.228,9.461v.824c-.755-.547-6.205-4.468-7.185-4.835a2.038,2.038,0,1,0-1.43,3.817c.988.369,7.749,1,8.615,1.077V107.8a1.41,1.41,0,0,0-1.166,1.374v1.369c-.151.04-5.017,1.309-5.666,1.683a1.378,1.378,0,0,0,1.377,2.387c.648-.378,4.21-3.979,4.289-4.059v3.286c-.666.248-5.178,1.927-5.793,2.365a1.476,1.476,0,0,0,1.721,2.4c.6-.429,3.542-4.033,4.072-4.685v2.146a1.41,1.41,0,0,0,.436,1.02c-.728.45-4.888,3.031-5.418,3.6a1.544,1.544,0,1,0,2.256,2.108c.53-.571,2.837-4.938,3.221-5.666a1.41,1.41,0,0,0,.877.354c-.31,1.137-1.981,7.3-1.981,8.324a2.034,2.034,0,1,0,4.068,0c0-1.02-1.669-7.187-1.981-8.324a1.418,1.418,0,0,0,.879-.354c.381.728,2.689,5.1,3.219,5.666a1.545,1.545,0,0,0,2.258-2.108c-.532-.568-4.692-3.149-5.419-3.6a1.409,1.409,0,0,0,.435-1.02v-2.146c.53.652,3.474,4.256,4.074,4.685a1.476,1.476,0,1,0,1.719-2.4c-.617-.438-5.125-2.117-5.793-2.365v-3.286c.079.08,3.639,3.681,4.29,4.059a1.378,1.378,0,0,0,1.378-2.387c-.651-.374-5.516-1.643-5.668-1.683v-1.369a1.4,1.4,0,0,0-1.167-1.372v-4.64c.866-.079,7.629-.708,8.616-1.077a2.04,2.04,0,0,0,1.194-2.625" fill="#130c0e"/>
    <path id="Path_15" data-name="Path 15" d="M274.4,99.464a2.035,2.035,0,0,0-2.623-1.192c-.981.367-6.429,4.288-7.185,4.835v-.822c.635-2.351,2.229-8.364,2.229-9.463a2.488,2.488,0,0,0-4.975,0c0,1.1,1.594,7.106,2.227,9.461v.824c-.755-.547-6.205-4.468-7.185-4.835a2.038,2.038,0,1,0-1.43,3.817c.988.369,7.749,1,8.615,1.077V107.8a1.409,1.409,0,0,0-1.165,1.374v1.369c-.152.04-5.018,1.309-5.666,1.683a1.378,1.378,0,0,0,1.376,2.387c.649-.378,4.21-3.979,4.29-4.059v3.286c-.667.248-5.178,1.927-5.794,2.365a1.476,1.476,0,0,0,1.721,2.4c.6-.429,3.543-4.033,4.073-4.685v2.146a1.409,1.409,0,0,0,.435,1.02c-.726.45-4.888,3.031-5.418,3.6a1.545,1.545,0,1,0,2.258,2.108c.53-.571,2.837-4.938,3.221-5.666a1.4,1.4,0,0,0,.877.354c-.31,1.137-1.983,7.3-1.983,8.324a2.035,2.035,0,1,0,4.07,0c0-1.02-1.671-7.187-1.981-8.324a1.412,1.412,0,0,0,.877-.354c.381.728,2.689,5.1,3.221,5.666a1.544,1.544,0,0,0,2.256-2.108c-.532-.568-4.692-3.149-5.417-3.6a1.415,1.415,0,0,0,.433-1.02v-2.146c.53.652,3.474,4.256,4.074,4.685a1.476,1.476,0,1,0,1.719-2.4c-.615-.438-5.125-2.117-5.793-2.365v-3.286c.079.08,3.641,3.681,4.29,4.059a1.378,1.378,0,0,0,1.378-2.387c-.651-.374-5.514-1.643-5.668-1.683v-1.369a1.4,1.4,0,0,0-1.165-1.372v-4.64c.864-.079,7.627-.708,8.614-1.077a2.038,2.038,0,0,0,1.194-2.625" fill="#130c0e"/>
    <path id="Path_16" data-name="Path 16" d="M206.326,334.156,168.984,271.21l37.342-62.946L243.67,271.21Z" fill="#ffc10e"/>
    <path id="Path_17" data-name="Path 17" d="M216.4,229.765a2.039,2.039,0,0,0-2.625-1.194c-.979.367-6.427,4.29-7.185,4.837v-.822c.637-2.351,2.229-8.364,2.229-9.465a2.487,2.487,0,0,0-4.974,0c0,1.1,1.593,7.108,2.23,9.463v.824c-.758-.547-6.205-4.47-7.187-4.837a2.039,2.039,0,1,0-1.428,3.819c.986.369,7.747,1,8.615,1.077V238.1a1.41,1.41,0,0,0-1.168,1.374v1.369c-.151.038-5.017,1.309-5.666,1.683a1.378,1.378,0,0,0,1.377,2.387c.648-.378,4.21-3.979,4.289-4.059v3.287c-.666.247-5.177,1.925-5.791,2.364a1.476,1.476,0,1,0,1.719,2.4c.6-.429,3.542-4.033,4.072-4.685v2.146a1.41,1.41,0,0,0,.436,1.02c-.726.448-4.886,3.03-5.418,3.6a1.544,1.544,0,1,0,2.256,2.108c.532-.571,2.837-4.94,3.221-5.666a1.408,1.408,0,0,0,.877.354c-.31,1.137-1.981,7.3-1.981,8.323a2.035,2.035,0,1,0,4.07,0c0-1.019-1.671-7.186-1.981-8.323a1.417,1.417,0,0,0,.877-.354c.381.726,2.689,5.1,3.219,5.666a1.545,1.545,0,0,0,2.258-2.108c-.532-.569-4.692-3.151-5.419-3.6a1.409,1.409,0,0,0,.435-1.02v-2.146c.532.652,3.474,4.256,4.074,4.685a1.476,1.476,0,1,0,1.719-2.4c-.615-.439-5.125-2.117-5.793-2.364v-3.287c.081.08,3.641,3.681,4.29,4.059a1.378,1.378,0,0,0,1.378-2.387c-.649-.374-5.516-1.645-5.668-1.683v-1.369a1.4,1.4,0,0,0-1.167-1.372v-4.64c.868-.079,7.629-.708,8.616-1.077a2.04,2.04,0,0,0,1.194-2.625" fill="#130c0e"/>
    <path id="Path_18" data-name="Path 18" d="M216.4,293.4a2.038,2.038,0,0,0-2.625-1.192c-.979.367-6.427,4.29-7.185,4.837v-.824c.637-2.35,2.229-8.362,2.229-9.461a2.487,2.487,0,1,0-4.974,0c0,1.1,1.593,7.106,2.23,9.459v.826c-.758-.547-6.205-4.47-7.187-4.837a2.038,2.038,0,1,0-1.428,3.817c.986.37,7.747,1,8.615,1.078v4.639a1.407,1.407,0,0,0-1.168,1.374v1.367c-.151.04-5.017,1.311-5.666,1.683a1.379,1.379,0,0,0,1.377,2.389c.648-.378,4.21-3.981,4.289-4.061v3.288c-.666.246-5.177,1.926-5.791,2.365a1.475,1.475,0,1,0,1.719,2.4c.6-.429,3.542-4.033,4.072-4.683v2.146a1.414,1.414,0,0,0,.436,1.02c-.726.448-4.886,3.03-5.418,3.6a1.544,1.544,0,0,0,2.256,2.108c.532-.573,2.837-4.938,3.221-5.668a1.4,1.4,0,0,0,.877.356c-.31,1.137-1.981,7.3-1.981,8.323a2.035,2.035,0,1,0,4.07,0c0-1.02-1.671-7.186-1.981-8.323a1.408,1.408,0,0,0,.877-.356c.381.73,2.689,5.095,3.219,5.668a1.545,1.545,0,0,0,2.258-2.108c-.532-.569-4.692-3.151-5.419-3.6a1.413,1.413,0,0,0,.435-1.02v-2.146c.532.65,3.474,4.254,4.074,4.683a1.475,1.475,0,1,0,1.719-2.4c-.615-.439-5.125-2.119-5.793-2.365V304.5c.081.08,3.641,3.683,4.29,4.061a1.379,1.379,0,0,0,1.378-2.389c-.649-.372-5.516-1.643-5.668-1.683v-1.367a1.407,1.407,0,0,0-1.167-1.374v-4.639c.868-.079,7.629-.708,8.616-1.078A2.039,2.039,0,0,0,216.4,293.4" fill="#130c0e"/>
    <path id="Path_19" data-name="Path 19" d="M234.073,263.3a2.034,2.034,0,0,0-2.623-1.192c-.981.367-6.429,4.288-7.185,4.835v-.822c.635-2.351,2.229-8.362,2.229-9.463a2.488,2.488,0,0,0-4.975,0c0,1.1,1.594,7.108,2.227,9.461v.824c-.756-.547-6.205-4.468-7.185-4.835a2.038,2.038,0,1,0-1.43,3.817c.988.368,7.749,1,8.615,1.078v4.637a1.409,1.409,0,0,0-1.165,1.374v1.369c-.152.038-5.018,1.309-5.667,1.683a1.378,1.378,0,1,0,1.377,2.387c.649-.376,4.21-3.979,4.29-4.059v3.288c-.667.248-5.178,1.924-5.794,2.365a1.476,1.476,0,0,0,1.721,2.4c.6-.431,3.543-4.035,4.073-4.687v2.148a1.416,1.416,0,0,0,.435,1.02c-.726.446-4.888,3.03-5.418,3.6a1.545,1.545,0,1,0,2.258,2.11c.53-.573,2.837-4.94,3.221-5.667a1.407,1.407,0,0,0,.876.353c-.31,1.137-1.982,7.3-1.982,8.323a2.034,2.034,0,1,0,4.068,0c0-1.018-1.669-7.186-1.979-8.323a1.417,1.417,0,0,0,.877-.353c.381.727,2.689,5.094,3.22,5.667a1.545,1.545,0,0,0,2.257-2.11c-.532-.567-4.692-3.151-5.417-3.6a1.422,1.422,0,0,0,.433-1.02v-2.148c.53.652,3.474,4.256,4.074,4.687a1.476,1.476,0,0,0,1.719-2.4c-.615-.441-5.125-2.117-5.793-2.365v-3.288c.081.08,3.641,3.683,4.29,4.059a1.378,1.378,0,0,0,1.378-2.387c-.649-.374-5.516-1.645-5.668-1.683v-1.369a1.406,1.406,0,0,0-1.165-1.374V267c.864-.08,7.627-.71,8.616-1.078a2.039,2.039,0,0,0,1.192-2.625" fill="#130c0e"/>
    <path id="Path_20" data-name="Path 20" d="M198.718,263.3a2.037,2.037,0,0,0-2.625-1.192c-.979.367-6.427,4.288-7.185,4.835v-.822c.635-2.351,2.229-8.362,2.229-9.463a2.487,2.487,0,1,0-4.974,0c0,1.1,1.593,7.108,2.226,9.461v.824c-.754-.547-6.2-4.468-7.184-4.835a2.038,2.038,0,0,0-1.431,3.817c.989.368,7.751,1,8.615,1.078v4.637a1.408,1.408,0,0,0-1.164,1.374v1.369c-.153.038-5.019,1.309-5.666,1.683a1.378,1.378,0,1,0,1.377,2.387c.648-.376,4.208-3.979,4.289-4.059v3.288c-.668.248-5.179,1.924-5.793,2.365a1.476,1.476,0,0,0,1.721,2.4c.6-.431,3.541-4.035,4.072-4.687v2.148a1.423,1.423,0,0,0,.434,1.02c-.726.446-4.888,3.03-5.418,3.6a1.545,1.545,0,1,0,2.258,2.11c.53-.573,2.837-4.94,3.221-5.667a1.408,1.408,0,0,0,.877.353c-.31,1.137-1.983,7.3-1.983,8.323a2.035,2.035,0,1,0,4.07,0c0-1.018-1.671-7.186-1.981-8.323a1.412,1.412,0,0,0,.877-.353c.381.727,2.689,5.094,3.221,5.667a1.545,1.545,0,0,0,2.258-2.11c-.532-.567-4.694-3.151-5.419-3.6a1.422,1.422,0,0,0,.433-1.02v-2.148c.53.652,3.474,4.256,4.074,4.687a1.476,1.476,0,1,0,1.719-2.4c-.615-.441-5.123-2.117-5.793-2.365v-3.288c.081.08,3.641,3.683,4.292,4.059a1.378,1.378,0,0,0,1.376-2.387c-.649-.374-5.514-1.645-5.668-1.683v-1.369a1.406,1.406,0,0,0-1.165-1.374V267c.866-.08,7.629-.71,8.616-1.078a2.041,2.041,0,0,0,1.194-2.625" fill="#130c0e"/>
    <path id="Path_21" data-name="Path 21" d="M305.225,214.018a3.258,3.258,0,0,0-4.2-1.911c-1.568.587-10.286,6.863-11.5,7.738V218.53c1.016-3.764,3.568-13.382,3.568-15.141a3.98,3.98,0,1,0-7.961,0c0,1.759,2.55,11.374,3.564,15.139v1.317c-1.209-.875-9.929-7.151-11.5-7.738a3.262,3.262,0,0,0-2.289,6.11c1.581.588,12.4,1.6,13.786,1.724v7.421a2.253,2.253,0,0,0-1.865,2.2v2.192c-.244.06-8.029,2.092-9.067,2.692a2.2,2.2,0,1,0,2.2,3.817c1.038-.6,6.735-6.363,6.864-6.495v5.264c-1.068.4-8.286,3.078-9.269,3.783a2.361,2.361,0,0,0,2.752,3.837c.961-.688,5.667-6.455,6.517-7.5v3.435a2.271,2.271,0,0,0,.7,1.634c-1.163.714-7.822,4.848-8.671,5.756a2.472,2.472,0,1,0,3.614,3.373c.847-.915,4.538-7.9,5.152-9.066a2.26,2.26,0,0,0,1.4.567c-.5,1.817-3.173,11.689-3.173,13.316a3.256,3.256,0,1,0,6.512,0c0-1.627-2.671-11.5-3.168-13.316a2.255,2.255,0,0,0,1.4-.567c.611,1.163,4.3,8.151,5.153,9.066a2.471,2.471,0,0,0,3.613-3.373c-.851-.908-7.509-5.042-8.669-5.756a2.283,2.283,0,0,0,.694-1.634v-3.435c.847,1.043,5.557,6.81,6.517,7.5a2.361,2.361,0,1,0,2.751-3.837c-.983-.705-8.2-3.388-9.268-3.783v-5.264c.126.132,5.823,5.894,6.863,6.495a2.2,2.2,0,0,0,2.2-3.817c-1.04-.6-8.824-2.632-9.068-2.692V229.56a2.252,2.252,0,0,0-1.866-2.2v-7.421c1.385-.127,12.2-1.136,13.786-1.724a3.262,3.262,0,0,0,1.908-4.2" fill="#130c0e"/>
    <path id="Path_22" data-name="Path 22" d="M140.811,214.018a3.259,3.259,0,0,0-4.2-1.911c-1.57.587-10.286,6.863-11.5,7.738V218.53c1.018-3.764,3.568-13.382,3.568-15.141a3.98,3.98,0,1,0-7.961,0c0,1.759,2.552,11.374,3.566,15.139v1.317c-1.209-.875-9.93-7.151-11.5-7.738a3.262,3.262,0,0,0-2.289,6.11c1.583.588,12.4,1.6,13.788,1.724v7.421a2.251,2.251,0,0,0-1.865,2.2v2.192c-.244.06-8.029,2.092-9.069,2.692a2.2,2.2,0,1,0,2.205,3.817c1.036-.6,6.735-6.363,6.864-6.495v5.264c-1.068.4-8.286,3.078-9.271,3.783a2.362,2.362,0,0,0,2.754,3.837c.959-.688,5.667-6.455,6.517-7.5v3.435a2.277,2.277,0,0,0,.695,1.634c-1.163.714-7.821,4.848-8.669,5.756a2.471,2.471,0,1,0,3.612,3.373c.849-.915,4.54-7.9,5.152-9.066a2.261,2.261,0,0,0,1.4.567c-.5,1.817-3.173,11.689-3.173,13.316a3.256,3.256,0,1,0,6.512,0c0-1.627-2.673-11.5-3.17-13.316a2.25,2.25,0,0,0,1.4-.567c.611,1.163,4.3,8.151,5.154,9.066a2.471,2.471,0,1,0,3.612-3.373c-.849-.908-7.507-5.042-8.669-5.756a2.275,2.275,0,0,0,.694-1.634v-3.435c.849,1.043,5.558,6.81,6.519,7.5a2.36,2.36,0,1,0,2.749-3.837c-.983-.705-8.2-3.388-9.268-3.783v-5.264c.126.132,5.825,5.894,6.865,6.495a2.2,2.2,0,0,0,2.2-3.817c-1.04-.6-8.822-2.632-9.068-2.692V229.56a2.25,2.25,0,0,0-1.866-2.2v-7.421c1.385-.127,12.207-1.136,13.787-1.724a3.265,3.265,0,0,0,1.909-4.2" fill="#130c0e"/>
    <path id="Path_23" data-name="Path 23" d="M265.453,173.957a3.258,3.258,0,0,0-4.2-1.911c-1.568.587-10.286,6.863-11.5,7.738v-1.315c1.016-3.765,3.566-13.382,3.566-15.141a3.98,3.98,0,1,0-7.959,0c0,1.759,2.55,11.374,3.564,15.139v1.317c-1.209-.875-9.929-7.151-11.5-7.738a3.262,3.262,0,0,0-2.289,6.11c1.581.587,12.4,1.6,13.786,1.726V187.3a2.251,2.251,0,0,0-1.865,2.2v2.191c-.244.06-8.029,2.092-9.067,2.692a2.2,2.2,0,1,0,2.2,3.817c1.036-.6,6.735-6.363,6.864-6.5v5.265c-1.068.4-8.286,3.078-9.269,3.783a2.361,2.361,0,1,0,2.752,3.837c.961-.688,5.667-6.455,6.517-7.5v3.437a2.268,2.268,0,0,0,.7,1.633c-1.165.714-7.823,4.85-8.671,5.755a2.471,2.471,0,1,0,3.612,3.374c.849-.913,4.54-7.9,5.154-9.066a2.254,2.254,0,0,0,1.4.566c-.5,1.818-3.173,11.69-3.173,13.319a3.256,3.256,0,1,0,6.512,0c0-1.629-2.673-11.5-3.168-13.319a2.259,2.259,0,0,0,1.4-.566c.609,1.164,4.3,8.153,5.152,9.066a2.471,2.471,0,1,0,3.612-3.374c-.849-.9-7.508-5.041-8.669-5.755a2.271,2.271,0,0,0,.7-1.633V197.09c.847,1.044,5.557,6.811,6.517,7.5a2.361,2.361,0,1,0,2.751-3.837c-.985-.705-8.2-3.388-9.268-3.783V191.7c.126.133,5.823,5.9,6.863,6.5a2.2,2.2,0,0,0,2.2-3.817c-1.042-.6-8.825-2.632-9.068-2.692V189.5a2.252,2.252,0,0,0-1.866-2.2v-7.419c1.385-.129,12.2-1.139,13.786-1.726a3.263,3.263,0,0,0,1.908-4.2" fill="#130c0e"/>
    <path id="Path_24" data-name="Path 24" d="M180.513,173.957a3.261,3.261,0,0,0-4.2-1.911c-1.568.587-10.286,6.863-11.5,7.738v-1.315c1.016-3.765,3.568-13.382,3.568-15.141a3.98,3.98,0,1,0-7.961,0c0,1.759,2.552,11.374,3.564,15.139v1.317c-1.209-.875-9.929-7.151-11.5-7.738a3.262,3.262,0,0,0-2.289,6.11c1.581.587,12.4,1.6,13.786,1.726V187.3a2.253,2.253,0,0,0-1.865,2.2v2.191c-.244.06-8.029,2.092-9.067,2.692a2.2,2.2,0,1,0,2.2,3.817c1.038-.6,6.735-6.363,6.864-6.5v5.265c-1.068.4-8.285,3.078-9.269,3.783a2.361,2.361,0,0,0,2.752,3.837c.961-.688,5.669-6.455,6.517-7.5v3.437a2.268,2.268,0,0,0,.7,1.633c-1.163.714-7.821,4.85-8.671,5.755a2.472,2.472,0,0,0,3.614,3.374c.847-.913,4.538-7.9,5.152-9.066a2.259,2.259,0,0,0,1.4.566c-.5,1.818-3.171,11.69-3.171,13.319a3.255,3.255,0,1,0,6.51,0c0-1.629-2.671-11.5-3.168-13.319a2.254,2.254,0,0,0,1.4-.566c.611,1.164,4.3,8.153,5.153,9.066a2.472,2.472,0,0,0,3.613-3.374c-.851-.9-7.509-5.041-8.669-5.755a2.277,2.277,0,0,0,.694-1.633V197.09c.847,1.044,5.558,6.811,6.517,7.5a2.361,2.361,0,1,0,2.751-3.837c-.983-.705-8.2-3.388-9.268-3.783V191.7c.126.133,5.823,5.9,6.863,6.5a2.2,2.2,0,0,0,2.205-3.817c-1.04-.6-8.824-2.632-9.068-2.692V189.5a2.252,2.252,0,0,0-1.866-2.2v-7.419c1.385-.129,12.205-1.139,13.787-1.726a3.265,3.265,0,0,0,1.909-4.2" fill="#130c0e"/>
    <path id="Path_25" data-name="Path 25" d="M221.028,134.638a3.258,3.258,0,0,0-4.2-1.909c-1.566.587-10.284,6.863-11.495,7.738v-1.315c1.018-3.764,3.568-13.383,3.568-15.143a3.98,3.98,0,1,0-7.961,0c0,1.76,2.55,11.374,3.564,15.139v1.319c-1.207-.875-9.929-7.151-11.5-7.738a3.261,3.261,0,1,0-2.289,6.108c1.581.59,12.4,1.6,13.786,1.726v7.421a2.25,2.25,0,0,0-1.864,2.2v2.191c-.243.06-8.03,2.094-9.068,2.694a2.2,2.2,0,1,0,2.2,3.817c1.038-.6,6.735-6.365,6.865-6.495v5.263c-1.067.394-8.287,3.077-9.27,3.782a2.362,2.362,0,0,0,2.752,3.839c.961-.69,5.667-6.457,6.518-7.5v3.436a2.275,2.275,0,0,0,.7,1.632c-1.163.716-7.821,4.85-8.671,5.756a2.472,2.472,0,1,0,3.614,3.375c.847-.915,4.538-7.9,5.15-9.066a2.269,2.269,0,0,0,1.405.565c-.5,1.819-3.171,11.689-3.171,13.318a3.256,3.256,0,1,0,6.511,0c0-1.629-2.674-11.5-3.171-13.318a2.245,2.245,0,0,0,1.4-.565c.611,1.163,4.305,8.151,5.156,9.066a2.471,2.471,0,0,0,3.61-3.375c-.849-.906-7.507-5.04-8.669-5.756a2.269,2.269,0,0,0,.694-1.632v-3.436c.851,1.042,5.558,6.809,6.519,7.5a2.361,2.361,0,1,0,2.749-3.839c-.983-.705-8.2-3.388-9.268-3.782v-5.263c.126.13,5.825,5.892,6.865,6.495a2.2,2.2,0,0,0,2.2-3.817c-1.04-.6-8.821-2.634-9.068-2.694v-2.191a2.247,2.247,0,0,0-1.864-2.2v-7.421c1.385-.129,12.205-1.136,13.786-1.726a3.263,3.263,0,0,0,1.908-4.2" fill="#130c0e"/>
    <path id="Path_26" data-name="Path 26" d="M33.494,292.245a60.779,60.779,0,0,1-3.461-27.873c1.43-12.016,10.242-15.105,16.805-16.846,9.667-2.566,16.475-1.007,16.475-1.007s5.226,11.286,11.474,22.946c6.375,11.9,13.386,22.949,13.386,22.949s-3.4,5.525-16.539,3.685c-9.94-1.392-15.953-18.7-15.953-18.7l-5.626,13.137Z" fill="#130c0e"/>
    <path id="Path_27" data-name="Path 27" d="M378.12,292.245a60.794,60.794,0,0,0,3.459-27.873c-1.43-12.016-10.242-15.105-16.807-16.846-9.665-2.566-16.473-1.007-16.473-1.007s-5.226,11.286-11.473,22.946c-6.376,11.9-13.387,22.949-13.387,22.949s3.4,5.525,16.538,3.685c9.943-1.392,15.954-18.7,15.954-18.7l5.626,13.137Z" fill="#130c0e"/>
    <path id="Path_28" data-name="Path 28" d="M56.232,295,46.094,317.672a119.31,119.31,0,0,0,10.389,11c8.161,7.657,11.987,11.118,11.987,11.118s3.076-9.414,6.376-18.216,6.557-16.4,6.557-16.4-8.522,2.391-14.573-.911A38.809,38.809,0,0,1,56.232,295" fill="#130c0e"/>
    <path id="Path_29" data-name="Path 29" d="M35.417,300.059s2.482-.391,5.182-.71c3.1-.365,6.011-.728,6.011-.728l-4.995,11.743a31.994,31.994,0,0,1-3.349-4.826c-1.413-2.416-2.849-5.479-2.849-5.479" fill="#130c0e"/>
    <path id="Path_30" data-name="Path 30" d="M34.292,354.522q1.319-2.748,2.753-5.822t2.928-6.288q1.491-3.216,2.813-6.111.273.4.538.757a7.354,7.354,0,0,0,.543.662,7.617,7.617,0,0,0,.616.593c.226.192.464.391.714.594q-1.145,2.08-2.348,4.426t-2.4,4.822q-1.2,2.48-2.409,5.041t-2.375,5.127q1.448-.5,3.2-1.145c1.168-.427,2.373-.886,3.617-1.368s2.5-.985,3.767-1.508,2.488-1.022,3.658-1.5,2.254-.93,3.254-1.358,1.86-.8,2.583-1.13a4.761,4.761,0,0,0,1.715,1.855q-6.172,2.076-12.127,4.235t-11.77,4.468a9.137,9.137,0,0,0-.715-.873,7.309,7.309,0,0,0-.815-.779q.943-1.949,2.26-4.7" fill="#fff"/>
    <path id="Path_31" data-name="Path 31" d="M57,357.218q1.372-1.682,2.788-3.436.287.345.56.655a6.362,6.362,0,0,0,.581.58,6.649,6.649,0,0,0,.647.506c.228.154.466.312.718.475q-1.569,1.622-3.069,3.188t-2.994,3.254l-3.888,4.4q-1.494,1.686-2.878,3.382t-2.707,3.345c-.364-.381-.765-.766-1.209-1.159s-.877-.744-1.3-1.056q1.48-1.52,2.992-3.1t3-3.269l3.891-4.4q1.494-1.691,2.865-3.37" fill="#fff"/>
    <path id="Path_32" data-name="Path 32" d="M66.689,377.974q-.822-6.461-1.675-12.875-.585.754-1.55,2.038t-2.58,3.529c-.279.387-.62.872-1.022,1.449s-.826,1.187-1.268,1.824-.887,1.282-1.335,1.94-.86,1.275-1.24,1.844-.712,1.065-.99,1.495-.466.722-.554.886a8.9,8.9,0,0,0-.93-.754,10.589,10.589,0,0,0-1.064-.683c.169-.157.457-.471.86-.937s.877-1.031,1.413-1.7,1.117-1.39,1.749-2.17,1.251-1.566,1.864-2.358,1.207-1.571,1.785-2.335,1.084-1.448,1.522-2.058q1.916-2.661,3.276-4.584t1.985-2.9l.442.319q.374,3.047.8,6.523t.855,6.882q.432,3.4.832,6.444t.756,5.233l2.711-3.77q2.094-2.907,4.035-5.7t3.559-5.326a4.83,4.83,0,0,0,.842.816,4.754,4.754,0,0,0,.987.5c-.331.381-.809.961-1.44,1.739s-1.3,1.616-2.012,2.5-1.4,1.768-2.08,2.629-1.2,1.557-1.591,2.093l-1.2,1.663q-.676.943-1.4,1.978t-1.456,2.085q-.735,1.048-1.369,1.961t-1.113,1.575c-.292.406-.51.71-.657.916l-.389-.281q-.535-5.979-1.357-12.436" fill="#fff"/>
    <path id="Path_33" data-name="Path 33" d="M91.139,402.148a9.194,9.194,0,0,1-1.686-.262q-.948-.223-2.063-.6a13.8,13.8,0,0,1-2.225-.983,15.653,15.653,0,0,1-4.006-3.065,10.516,10.516,0,0,1-2.337-3.946,11.024,11.024,0,0,1-.435-4.613,14.716,14.716,0,0,1,4.964-9.077,10.823,10.823,0,0,1,4.151-2.11,11.373,11.373,0,0,1,4.695-.154,15.8,15.8,0,0,1,4.946,1.77,17.223,17.223,0,0,1,3.389,2.379,19.335,19.335,0,0,1,2.357,2.554,4.563,4.563,0,0,0-1.01.926c-.364.423-.661.781-.9,1.065l-.212-.036a7.581,7.581,0,0,0-.4-1.268,10.5,10.5,0,0,0-.783-1.557,9.1,9.1,0,0,0-1.232-1.588,7.457,7.457,0,0,0-1.822-1.367,10.581,10.581,0,0,0-3.591-1.223,7.989,7.989,0,0,0-3.594.31,9.345,9.345,0,0,0-3.391,2.038,17.1,17.1,0,0,0-4.7,8.6,9.278,9.278,0,0,0,.115,3.954,7.935,7.935,0,0,0,1.677,3.194,10.54,10.54,0,0,0,2.968,2.362,8.032,8.032,0,0,0,2.14.82,11.861,11.861,0,0,0,2.031.273,11.477,11.477,0,0,0,1.819-.055q.851-.1,1.451-.2l.055.188-1.236,1.617a4.344,4.344,0,0,1-1.141.059" fill="#fff"/>
    <path id="Path_34" data-name="Path 34" d="M105.083,388.444q.817-2.006,1.656-4.1c.252.163.494.315.729.46a6.285,6.285,0,0,0,.724.385,6.59,6.59,0,0,0,.769.294c.262.08.537.163.825.242q-1.023,2.012-2,3.949t-1.906,3.989l-2.427,5.349q-.933,2.051-1.759,4.076t-1.607,3.993c-.458-.259-.955-.508-1.495-.752s-1.056-.457-1.551-.631q.967-1.883,1.949-3.839t1.914-4.006l2.426-5.347q.933-2.049,1.752-4.061" fill="#fff"/>
    <path id="Path_35" data-name="Path 35" d="M118.868,391.423c-.552-.211-1.135-.425-1.744-.646s-1.226-.429-1.844-.629-1.218-.383-1.8-.554-1.106-.312-1.576-.418a4.219,4.219,0,0,0,.547-.959,4.655,4.655,0,0,0,.216-1.051q2.083.867,4.074,1.678t4.1,1.612q2.106.8,4.135,1.519t4.158,1.455a4.822,4.822,0,0,0-.548.961,4.1,4.1,0,0,0-.217,1.049c-.422-.233-.908-.479-1.454-.735s-1.119-.518-1.713-.78-1.193-.514-1.794-.756-1.18-.466-1.734-.678q-1.346,3.252-2.608,6.57l-2.087,5.488q-.8,2.1-1.5,4.178t-1.356,4.089c-.473-.231-.985-.449-1.538-.66s-1.083-.387-1.587-.531q.848-1.943,1.7-3.954t1.658-4.118l2.089-5.488q1.26-3.318,2.416-6.642" fill="#fff"/>
    <path id="Path_36" data-name="Path 36" d="M140.418,406.66a5.867,5.867,0,0,1,3.736-2.265,5.727,5.727,0,0,1,4.377,1.073A5.835,5.835,0,0,1,150.8,409.2a5.742,5.742,0,0,1-1.071,4.379,5.951,5.951,0,0,1-1.649,1.493,5.887,5.887,0,0,1-2.087.772,5.737,5.737,0,0,1-4.377-1.071,5.844,5.844,0,0,1-2.265-3.737,5.743,5.743,0,0,1,1.071-4.378" fill="#fff"/>
    <path id="Path_37" data-name="Path 37" d="M167.762,409.625a10.826,10.826,0,0,1,3-3.551,11.29,11.29,0,0,1,4.263-1.963,16.68,16.68,0,0,1,10.274,1.058,11.325,11.325,0,0,1,3.773,2.79,10.833,10.833,0,0,1,2.219,4.091,13.47,13.47,0,0,1,.4,5.242,13.879,13.879,0,0,1-1.088,4.263,11.527,11.527,0,0,1-2.17,3.277,10.141,10.141,0,0,1-3.07,2.207,10.98,10.98,0,0,1-3.819.978q1.68,1.647,3.413,3.3t3.65,3.328a3.725,3.725,0,0,0-1.68.341,2.889,2.889,0,0,0-1.108.779q-1.686-1.926-3.411-3.821t-3.684-3.842a3.31,3.31,0,0,1-.511-.02l-.475-.05a16.466,16.466,0,0,1-5.041-1.291,10.528,10.528,0,0,1-6-6.831,14.751,14.751,0,0,1,1.057-10.29m20.4,2.377a9.371,9.371,0,0,0-1.636-3.6,7.931,7.931,0,0,0-2.779-2.292,10.951,10.951,0,0,0-7.392-.764,7.971,7.971,0,0,0-3.188,1.679,9.334,9.334,0,0,0-2.333,3.193,17.126,17.126,0,0,0-1,9.747,9.364,9.364,0,0,0,1.636,3.6,7.961,7.961,0,0,0,2.779,2.295,10.984,10.984,0,0,0,7.392.761,7.937,7.937,0,0,0,3.188-1.68,9.327,9.327,0,0,0,2.333-3.192,17.124,17.124,0,0,0,1-9.747" fill="#fff"/>
    <path id="Path_38" data-name="Path 38" d="M214.445,409.048a35.481,35.481,0,0,0-.22-3.617c.249.042.49.079.717.11a4.485,4.485,0,0,0,.684.04,3.583,3.583,0,0,0,1.022-.185q-.085,1.2-.165,2.854t-.123,3.553q-.042,1.9-.084,3.894t-.048,3.876a12.313,12.313,0,0,1-.644,4.107,8.591,8.591,0,0,1-1.853,3.1,7.823,7.823,0,0,1-3,1.951,12.034,12.034,0,0,1-4.1.707q-5.122.069-7.475-2.22t-2.423-7.307q-.02-1.605.048-2.851c.044-.833.062-1.68.05-2.546q-.039-2.866-.138-5.084t-.189-3.755c.275.042.571.079.89.106a8.031,8.031,0,0,0,.889.041,5.315,5.315,0,0,0,.732-.061c.24-.037.483-.081.734-.13-.04.5-.075,1.156-.11,1.964s-.068,1.726-.1,2.752-.052,2.129-.057,3.312,0,2.412.016,3.687q.016,1.161.068,2.407a16.668,16.668,0,0,0,.272,2.419,9.942,9.942,0,0,0,.7,2.243,5.511,5.511,0,0,0,1.339,1.862,6.03,6.03,0,0,0,2.168,1.233,9.639,9.639,0,0,0,3.215.416,8.07,8.07,0,0,0,3.152-.588,6.047,6.047,0,0,0,2.078-1.462,6.579,6.579,0,0,0,1.252-2.066,11.415,11.415,0,0,0,.633-2.434,18.932,18.932,0,0,0,.2-2.529c.011-.842.013-1.618,0-2.322q-.069-4.847-.138-7.475" fill="#fff"/>
    <path id="Path_39" data-name="Path 39" d="M222.985,409.349q-.247-2.154-.519-4.393c.3.022.585.04.86.055a6.526,6.526,0,0,0,1.635-.125c.269-.053.55-.114.841-.183q.066,2.256.145,4.424t.244,4.415l.441,5.857q.166,2.246.416,4.419t.51,4.275c-.527,0-1.082.013-1.673.057s-1.145.108-1.664.194q-.054-2.118-.135-4.3t-.246-4.433l-.439-5.853q-.17-2.248-.416-4.4" fill="#fff"/>
    <path id="Path_40" data-name="Path 40" d="M244.048,412.225a5.876,5.876,0,0,1,2.522-3.568,5.751,5.751,0,0,1,4.443-.761,5.871,5.871,0,0,1,3.567,2.524,5.733,5.733,0,0,1,.76,4.443,5.854,5.854,0,0,1-2.522,3.566,5.749,5.749,0,0,1-4.443.761,5.869,5.869,0,0,1-3.568-2.524,5.756,5.756,0,0,1-.759-4.441" fill="#fff"/>
    <path id="Path_41" data-name="Path 41" d="M270.534,401.553q-.7-2.055-1.428-4.187c.535-.11,1.076-.23,1.621-.354s1.079-.264,1.6-.419q.395-.115.941-.313c.365-.13.738-.257,1.116-.382s.739-.247,1.084-.372.632-.222.873-.293c.328-.1.735-.2,1.221-.323a10.208,10.208,0,0,1,1.581-.253,9.074,9.074,0,0,1,1.734.022,4.77,4.77,0,0,1,1.7.53,4.885,4.885,0,0,1,1.489,1.252,7.3,7.3,0,0,1,1.172,5.973,7.043,7.043,0,0,1-1.674,2.771,9.45,9.45,0,0,1-2.583,1.864,16.589,16.589,0,0,1-2.625,1.058q-.753.223-1.381.389c-.416.112-.851.209-1.3.3l.531,1.8q.638,2.163,1.337,4.235t1.4,4.072c-.516.105-1.057.24-1.624.409s-1.1.345-1.586.536q-.5-2.058-1.037-4.179t-1.172-4.281l-1.658-5.633q-.637-2.16-1.332-4.217m7.143,5.459a10.553,10.553,0,0,0,2.029-.847,5.838,5.838,0,0,0,1.735-1.418,4.743,4.743,0,0,0,.979-2.1,7.135,7.135,0,0,0-1.3-5.081,3.4,3.4,0,0,0-1.5-1.053,4.517,4.517,0,0,0-1.916-.165,14.067,14.067,0,0,0-2.346.495l-2.948.87,2.865,9.727a10.51,10.51,0,0,0,2.4-.424" fill="#fff"/>
    <path id="Path_42" data-name="Path 42" d="M311.116,407.721a6.439,6.439,0,0,0-.868.258c-.266.105-.548.211-.846.325l-.845.325a6.252,6.252,0,0,0-.82.387q-.5-.649-1.284-1.537t-1.675-1.846q-.894-.954-1.819-1.937t-1.741-1.872q-1.035.36-2.091.744t-2.111.791q-.988.379-1.939.761t-1.926.792q-.069,2.879-.035,5.443t.178,4.191a10.6,10.6,0,0,0-1.2.389,10.417,10.417,0,0,0-1.156.515q.445-6.57.789-13.025t.644-13.116l.607-.232q1.471,1.559,3.188,3.368t3.485,3.656q1.766,1.846,3.522,3.659t3.281,3.368q1.53,1.554,2.744,2.769t1.921,1.824M293.2,403.214c.552-.213,1.132-.42,1.735-.627s1.18-.417,1.734-.63q.891-.338,1.779-.7c.59-.239,1.179-.485,1.766-.732l-6.64-6.745Z" fill="#fff"/>
    <path id="Path_43" data-name="Path 43" d="M308.254,384.974q-.8.383-1.671.818t-1.726.9c-.57.311-1.119.616-1.642.919s-.988.585-1.39.853a4.116,4.116,0,0,0-.317-1.059,4.842,4.842,0,0,0-.611-.882q2.064-.907,4.024-1.792t4-1.853q2.034-.973,3.951-1.946t3.922-2.008a4.7,4.7,0,0,0,.317,1.06,4.166,4.166,0,0,0,.609.88q-.689.218-1.535.547t-1.746.7c-.6.248-1.2.509-1.785.776s-1.152.534-1.686.789q1.425,3.216,2.955,6.42l2.535,5.3q.971,2.034,1.992,3.968t2.023,3.8c-.491.186-1,.4-1.539.661s-1.027.515-1.478.783q-.82-1.955-1.688-3.964t-1.836-4.041l-2.535-5.3q-1.53-3.2-3.14-6.332" fill="#fff"/>
    <path id="Path_44" data-name="Path 44" d="M321.84,381.014q-1.139-1.85-2.331-3.762.42-.159.8-.314a7.254,7.254,0,0,0,.737-.357,6.5,6.5,0,0,0,.69-.446q.33-.245.686-.523,1.016,2.014,2,3.946t2.093,3.9l2.876,5.119q1.1,1.967,2.249,3.828t2.273,3.657q-.722.325-1.493.762T331,397.7q-.947-1.893-1.944-3.842t-2.1-3.911l-2.876-5.12q-1.1-1.964-2.24-3.811" fill="#fff"/>
    <path id="Path_45" data-name="Path 45" d="M332.33,371.657q-.742.489-1.544,1.038c-.538.367-1.066.741-1.589,1.126s-1.023.763-1.5,1.132-.9.715-1.262,1.035a4.109,4.109,0,0,0-.459-1.006,4.6,4.6,0,0,0-.722-.79q1.92-1.183,3.743-2.322t3.707-2.379q1.883-1.239,3.65-2.464t3.614-2.522a4.633,4.633,0,0,0,.459,1.005,3.923,3.923,0,0,0,.722.791q-.654.311-1.447.75t-1.634.932q-.843.492-1.662,1.014t-1.565,1.009q1.85,2.994,3.8,5.96l3.23,4.9q1.237,1.883,2.511,3.66t2.522,3.49q-.693.375-1.434.862t-1.361.978q-1.075-1.824-2.209-3.7t-2.368-3.753l-3.23-4.9q-1.95-2.967-3.969-5.848" fill="#fff"/>
    <path id="Path_46" data-name="Path 46" d="M358.263,354.034a34.572,34.572,0,0,0-2.476-2.643c.22-.127.427-.253.622-.374a4.657,4.657,0,0,0,.554-.406,3.68,3.68,0,0,0,.667-.792q.7.973,1.693,2.3t2.176,2.812q1.178,1.485,2.421,3.048t2.437,3.014a12.343,12.343,0,0,1,2.128,3.573,8.6,8.6,0,0,1,.55,3.568,7.883,7.883,0,0,1-1.058,3.415,12,12,0,0,1-2.709,3.162q-3.9,3.324-7.17,3.065t-6.53-4.079q-1.039-1.221-1.783-2.225t-1.587-1.99q-1.86-2.18-3.353-3.826t-2.54-2.768c.237-.141.486-.305.752-.486a8.411,8.411,0,0,0,.708-.536,5.042,5.042,0,0,0,.527-.515q.238-.273.48-.567.435.613,1.17,1.581t1.679,2.179q.947,1.214,2.072,2.586c.751.918,1.541,1.858,2.368,2.829q.752.883,1.587,1.808a16.487,16.487,0,0,0,1.755,1.69,10.083,10.083,0,0,0,1.968,1.282,5.577,5.577,0,0,0,2.22.576,6.1,6.1,0,0,0,2.456-.435,9.641,9.641,0,0,0,2.74-1.731,8.089,8.089,0,0,0,2.049-2.466,6.016,6.016,0,0,0,.666-2.454,6.59,6.59,0,0,0-.354-2.39,11.612,11.612,0,0,0-1.067-2.274,19.285,19.285,0,0,0-1.457-2.079q-.795-.981-1.482-1.788-3.144-3.687-4.879-5.666" fill="#fff"/>
    <path id="Path_47" data-name="Path 47" d="M364.52,348.956q-1.695-1.356-3.463-2.755c.465-.467.919-.933,1.362-1.392s.881-.937,1.314-1.438.836-1.007,1.21-1.526.778-1.027,1.209-1.526a13.246,13.246,0,0,1,2-1.886,6.594,6.594,0,0,1,2.17-1.122,4.544,4.544,0,0,1,2.258-.077,5.919,5.919,0,0,1,3.952,3.648,6.83,6.83,0,0,1,.3,2.629,8.84,8.84,0,0,1-.584,2.5,11.368,11.368,0,0,1-1.014,2.032c.437.018,1.044.046,1.82.088s1.641.081,2.588.116,1.933.08,2.96.128,2.016.09,2.963.127,1.823.058,2.63.066,1.436-.008,1.886-.039a8.011,8.011,0,0,0-.723.728c-.222.259-.448.518-.671.776l-.648.749a6.614,6.614,0,0,0-.6.792q-.877-.082-2.643-.235t-3.832-.269q-2.064-.119-4.153-.188c-1.39-.044-2.608-.04-3.652.019l-.851.983,1.886,1.631q1.7,1.477,3.41,2.841t3.375,2.676q-.57.547-1.149,1.218c-.388.449-.735.884-1.043,1.31q-1.533-1.461-3.129-2.959t-3.3-2.97l-4.439-3.846q-1.7-1.475-3.4-2.829m7.487,1.29c.262-.268.543-.574.842-.921a10.513,10.513,0,0,0,1.26-1.819,6.376,6.376,0,0,0,.743-2.134,4.968,4.968,0,0,0-.172-2.25,4.706,4.706,0,0,0-1.51-2.144,4.42,4.42,0,0,0-1.988-1.068,3.957,3.957,0,0,0-1.884.062,4.95,4.95,0,0,0-1.647.831,9.172,9.172,0,0,0-1.325,1.246c-.522.6-.942,1.113-1.26,1.531s-.576.78-.781,1.083q1.375,1.284,2.724,2.54t2.742,2.467l1.471,1.273a6.779,6.779,0,0,0,.785-.7" fill="#fff"/>
    <path id="Path_48" data-name="Path 48" d="M356.579,295l10.138,22.673a119.311,119.311,0,0,1-10.389,11c-8.163,7.657-11.985,11.118-11.985,11.118s-3.076-9.414-6.378-18.216-6.557-16.4-6.557-16.4,8.523,2.391,14.573-.911a38.809,38.809,0,0,0,10.6-9.268" fill="#130c0e"/>
    <path id="Path_49" data-name="Path 49" d="M377.4,300.059s-2.484-.391-5.182-.71c-3.1-.365-6.012-.728-6.012-.728l5,11.743a31.953,31.953,0,0,0,3.348-4.826c1.412-2.416,2.85-5.479,2.85-5.479" fill="#130c0e"/>
    <path id="Path_50" data-name="Path 50" d="M117.045,495.633a12.71,12.71,0,0,0,.38-1.4,10.769,10.769,0,0,0,.2-1.4,5.015,5.015,0,0,0,1.733,2.313,4.368,4.368,0,0,0,2.621.831,3.661,3.661,0,0,0,2.745-1.057,3.865,3.865,0,0,0,1.03-2.821,3.116,3.116,0,0,0-.592-1.978,4.943,4.943,0,0,0-2.075-1.346l-2.138-.9a6.508,6.508,0,0,1-2.667-1.817,4.072,4.072,0,0,1-.838-2.615,4.759,4.759,0,0,1,1.546-3.665,5.7,5.7,0,0,1,4.02-1.424,8.685,8.685,0,0,1,2.049.238,9.339,9.339,0,0,1,1.958.728q-.193.426-.38.921t-.354,1.115a4.8,4.8,0,0,0-1.611-1.527,4.117,4.117,0,0,0-2.035-.509,3.076,3.076,0,0,0-2.313.883,3.281,3.281,0,0,0-.857,2.39,2.808,2.808,0,0,0,.612,1.849,5.519,5.519,0,0,0,2.055,1.372l2.139.927a6.44,6.44,0,0,1,2.686,1.868,4.4,4.4,0,0,1,.805,2.719,5.328,5.328,0,0,1-1.726,4.136,6.519,6.519,0,0,1-4.561,1.571,7.875,7.875,0,0,1-2.422-.36,6.6,6.6,0,0,1-2.01-1.044" fill="#130c0e"/>
    <path id="Path_51" data-name="Path 51" d="M131.294,496.689q.09-1.289.129-2.867t.039-3.936V487.7q0-4.212-.039-5.971t-.129-3.06q.27.051.56.077c.194.017.406.026.638.026s.449-.009.651-.026.406-.043.612-.077q-.092.888-.123,2.074t-.032,3.1v8.207q0,2.086.032,3.008t.123,1.63c-.189-.034-.383-.06-.58-.077s-.407-.026-.631-.026-.451.009-.657.026-.4.043-.593.077" fill="#130c0e"/>
    <path id="Path_52" data-name="Path 52" d="M138.29,496.676q.167-3.557.258-7.44t.09-8.111v-2.8h.489q2.834,3.271,5.924,6.59t7.031,7.285c0-.085.005-.219.014-.4q.044-1.353.044-1.92,0-3.181-.058-6.049t-.174-5.16c.237.035.415.058.534.071a2.984,2.984,0,0,0,.323.02,3.277,3.277,0,0,0,.342-.02c.123-.013.291-.036.5-.071q-.109,3.015-.171,6.088t-.061,6.281q0,1.16.013,2.486t.041,3.5h-.338q-1.211-1.507-2.867-3.356t-3.885-4.194l-6.38-6.725q-.014.3-.05,1.506t-.036,1.943q0,1.609.058,4.113t.174,6.352a3.97,3.97,0,0,0-.464-.087,3.566,3.566,0,0,0-.438-.029,2.938,2.938,0,0,0-.425.032c-.144.022-.307.05-.49.084" fill="#130c0e"/>
    <path id="Path_53" data-name="Path 53" d="M172.007,495.556a6.98,6.98,0,0,1-2.48,1.108,14.114,14.114,0,0,1-3.421.374,9.111,9.111,0,0,1-6.8-2.448,9.406,9.406,0,0,1-2.41-6.893,9,9,0,0,1,2.661-6.822,9.886,9.886,0,0,1,7.131-2.545,13.859,13.859,0,0,1,2.989.316,11.36,11.36,0,0,1,2.68.947,11.126,11.126,0,0,0-.316,1.308,7.114,7.114,0,0,0-.109,1.23,6.046,6.046,0,0,0-2.229-2.151,6.526,6.526,0,0,0-3.092-.683,6.336,6.336,0,0,0-5.16,2.209,9.466,9.466,0,0,0-1.836,6.217,9.318,9.318,0,0,0,1.823,6.087,6.094,6.094,0,0,0,4.979,2.223,8.14,8.14,0,0,0,2.951-.567,10.475,10.475,0,0,0,2.808-1.649Z" fill="#130c0e"/>
    <path id="Path_54" data-name="Path 54" d="M175.447,496.689q.121-1.662.177-3.884t.055-5.328q0-2.86-.055-5t-.177-3.813q.555.025,1.208.038t2.047.013q1.809,0,3.211-.013t2.849-.038c0,.077,0,.2-.013.373s-.013.3-.013.4c0,.077,0,.2.013.373s.013.3.013.387q-1.5-.129-3.072-.193t-3.188-.065h-.633q-.014,1.533-.019,2.925t-.007,2.641v1.056h.465q1.2,0,2.653-.058t3.092-.148c-.017.189-.03.344-.039.464s-.013.236-.013.348c0,.1,0,.2.013.309s.022.254.039.425a12.272,12.272,0,0,0-1.581-.161q-.949-.045-3.415-.045h-1.214v1.263q0,2.254.007,3.665t.019,2.777h.658q1.137,0,2.776-.078t3.562-.219c0,.086-.005.217-.013.393s-.013.312-.013.406,0,.217.013.393.013.307.013.393q-.75-.025-1.673-.039t-2.849-.013q-1.964,0-2.984.013t-1.912.039" fill="#130c0e"/>
    <path id="Path_55" data-name="Path 55" d="M210.7,500.816q.2-5.259.3-10.4t.1-10.154q0-1.769-.03-3.437t-.09-3.3l-6.884,3.978a7.11,7.11,0,0,0-.642-1.149,5.458,5.458,0,0,0-.818-.928q2.4-.884,5.327-2.232t7.115-3.47q-.21,4.044-.3,9.569t-.094,13.7q0,2.895.021,4.585t.062,3.238c-.3-.059-.622-.1-.949-.133s-.681-.044-1.06-.044-.735.015-1.07.044-.663.074-.982.133" fill="#130c0e"/>
    <path id="Path_56" data-name="Path 56" d="M235.986,500.816c0-.118.007-.317.023-.6q.2-3.358.2-5.569c0-.221-.008-.582-.022-1.083s-.022-.891-.022-1.171H235.9q-4.354-.088-6.431-.089-1.9,0-3.713.034t-3.536.1v-.685q3.072-4.088,6.442-8.939t8.122-12.011a.6.6,0,0,1,.133.022q.861.066,1.326.066c.161,0,.338,0,.53-.011s.493-.033.906-.077q-.111,1.769-.166,5.182t-.055,8.122q0,2.232.011,3.4t.033,2.254c.177.015.368.026.575.033s.515.011.928.011q.684,0,1.337-.033t1.271-.1l.022,2.718q-.885,0-1.912-.033t-2.2-.1q-.045,1.326-.055,2.52t-.011,2.453q0,1.259.033,2.044t.1,1.536c-.192-.029-.406-.052-.641-.067s-.612-.022-1.127-.022c-.487,0-.859.008-1.116.022s-.5.038-.719.067m-10.1-11.05H236.3V474.871a63.811,63.811,0,0,0-3.9,5.182q-2.708,3.856-6.508,9.713" fill="#130c0e"/>
    <path id="Path_57" data-name="Path 57" d="M257.567,484.108a8.831,8.831,0,0,1-4.078-2.4,5.57,5.57,0,0,1-1.314-3.79,6.592,6.592,0,0,1,2.309-5.271,9.135,9.135,0,0,1,6.155-1.978,9.788,9.788,0,0,1,6.221,1.746,5.958,5.958,0,0,1,2.2,4.95,6.4,6.4,0,0,1-1.326,4.133,7.889,7.889,0,0,1-3.955,2.475,9.556,9.556,0,0,1,5.138,2.851,7.776,7.776,0,0,1,1.69,5.215,9.056,9.056,0,0,1-2.707,6.884,10.1,10.1,0,0,1-7.259,2.575q-4.731,0-7.36-2.332a8.244,8.244,0,0,1-2.629-6.508,8.063,8.063,0,0,1,1.679-5.238,11.337,11.337,0,0,1,5.238-3.315m-2.895,8.509a8.378,8.378,0,0,0,1.558,5.425,5.363,5.363,0,0,0,4.409,1.912,5.3,5.3,0,0,0,4.353-1.934,8.355,8.355,0,0,0,1.569-5.4q0-3.89-1.4-5.812a4.97,4.97,0,0,0-4.3-1.923,5.568,5.568,0,0,0-4.619,1.956,9.079,9.079,0,0,0-1.569,5.779m1.392-14.829a6.647,6.647,0,0,0,1.171,4.243,4.11,4.11,0,0,0,3.4,1.459,4.474,4.474,0,0,0,3.558-1.47,6.039,6.039,0,0,0,1.281-4.1,6.788,6.788,0,0,0-1.149-4.343,5.043,5.043,0,0,0-7.038.055,6.284,6.284,0,0,0-1.227,4.155" fill="#130c0e"/>
    <path id="Path_58" data-name="Path 58" d="M277.859,500.816q1.811-2.762,5.967-9.79t9.348-16.243H284.8q-2.121,0-3.812.077t-3.061.232c.029-.191.052-.409.067-.652s.022-.607.022-1.094q0-.818-.022-1.215c-.015-.265-.038-.508-.067-.729q2.454.111,5.614.165t6.7.056q2.1,0,3.624-.056t2.807-.165v1.127Q290.5,483.07,286.423,490.5t-5.271,10.32c-.207-.029-.431-.051-.674-.066s-.594-.022-1.05-.022-.8.007-1.017.022a4.5,4.5,0,0,0-.552.066" fill="#130c0e"/>
  </g>
</svg>
